OxygenSans-Thin-FF.ufo
<glyph name="exclam" format="1">
  <advance width="501"/>
  <unicode hex="0021"/>
  <outline>
    <contour>
      <point x="252" y="-14" type="curve" smooth="yes"/>
      <point x="324" y="-14"/>
      <point x="346" y="34"/>
      <point x="346" y="78" type="curve" smooth="yes"/>
      <point x="346" y="120"/>
      <point x="324" y="168"/>
      <point x="252" y="168" type="curve" smooth="yes"/>
      <point x="181" y="168"/>
      <point x="161" y="120"/>
      <point x="161" y="78" type="curve" smooth="yes"/>
      <point x="161" y="36"/>
      <point x="181" y="-14"/>
    </contour>
    <contour>
      <point x="228" y="382" type="line"/>
      <point x="269" y="382" type="line"/>
      <point x="315" y="1301" type="line"/>
      <point x="315" y="1378" type="line"/>
      <point x="178" y="1378" type="line"/>
      <point x="178" y="1301" type="line"/>
    </contour>
  </outline>
</glyph>
<glyph name="quotedbl" format="1">
  <advance width="552"/>
  <unicode hex="0022"/>
  <outline>
    <contour>
      <point x="363" y="976" type="line"/>
      <point x="411" y="976" type="line"/>
      <point x="438" y="1392" type="line"/>
      <point x="332" y="1392" type="line"/>
    </contour>
    <contour>
      <point x="145" y="976" type="line"/>
      <point x="193" y="976" type="line"/>
      <point x="220" y="1392" type="line"/>
      <point x="114" y="1392" type="line"/>
    </contour>
    <contour>
      <point x="438" y="1392" type="line"/>
      <point x="333" y="1392" type="line"/>
    </contour>
  </outline>
</glyph>
<glyph name="numbersign" format="1">
  <advance width="1105"/>
  <unicode hex="0023"/>
  <outline>
    <contour>
      <point x="648" y="450" type="line"/>
      <point x="414" y="450" type="line"/>
      <point x="498" y="871" type="line"/>
      <point x="732" y="871" type="line"/>
    </contour>
    <contour>
      <point x="553" y="-26" type="line"/>
      <point x="645" y="-26" type="line"/>
      <point x="726" y="381" type="line"/>
      <point x="873" y="381" type="line"/>
      <point x="885" y="450" type="line"/>
      <point x="740" y="450" type="line"/>
      <point x="824" y="871" type="line"/>
      <point x="955" y="871" type="line"/>
      <point x="967" y="940" type="line"/>
      <point x="838" y="940" type="line"/>
      <point x="915" y="1326" type="line"/>
      <point x="823" y="1326" type="line"/>
      <point x="746" y="940" type="line"/>
      <point x="512" y="940" type="line"/>
      <point x="589" y="1326" type="line"/>
      <point x="497" y="1326" type="line"/>
      <point x="420" y="940" type="line"/>
      <point x="283" y="940" type="line"/>
      <point x="274" y="871" type="line"/>
      <point x="406" y="871" type="line"/>
      <point x="322" y="450" type="line"/>
      <point x="201" y="450" type="line"/>
      <point x="192" y="381" type="line"/>
      <point x="308" y="381" type="line"/>
      <point x="227" y="-26" type="line"/>
      <point x="319" y="-26" type="line"/>
      <point x="400" y="381" type="line"/>
      <point x="634" y="381" type="line"/>
    </contour>
  </outline>
</glyph>
<glyph name="dollar" format="1">
  <advance width="1155"/>
  <unicode hex="0024"/>
  <outline>
    <contour>
      <point x="546" y="-17.791" type="line"/>
      <point x="302.942" y="-12.6732"/>
      <point x="191.763" y="85.0791"/>
      <point x="146" y="125" type="curve"/>
      <point x="191" y="205" type="line"/>
      <point x="282" y="136"/>
      <point x="385" y="72"/>
      <point x="571" y="72" type="curve" smooth="yes"/>
      <point x="782" y="72"/>
      <point x="904" y="146"/>
      <point x="913" y="339" type="curve" smooth="yes"/>
      <point x="920" y="497"/>
      <point x="865" y="551"/>
      <point x="663" y="630" type="curve" smooth="yes"/>
      <point x="441" y="717" type="line" smooth="yes"/>
      <point x="266" y="786"/>
      <point x="151" y="865"/>
      <point x="160" y="1044" type="curve" smooth="yes"/>
      <point x="172.698" y="1286.16"/>
      <point x="357.321" y="1358.87"/>
      <point x="546" y="1370.3" type="curve"/>
      <point x="546" y="1604" type="line"/>
      <point x="619" y="1604" type="line"/>
      <point x="620.67" y="1371.74" type="line"/>
      <point x="766.021" y="1367.18"/>
      <point x="896.201" y="1304.13"/>
      <point x="954" y="1255" type="curve"/>
      <point x="902" y="1184" type="line"/>
      <point x="875" y="1203"/>
      <point x="759" y="1282"/>
      <point x="592" y="1282" type="curve" smooth="yes"/>
      <point x="438" y="1282"/>
      <point x="274" y="1233"/>
      <point x="266" y="1049" type="curve" smooth="yes"/>
      <point x="260" y="916"/>
      <point x="312" y="870"/>
      <point x="471" y="806" type="curve" smooth="yes"/>
      <point x="684" y="720" type="line" smooth="yes"/>
      <point x="864" y="647"/>
      <point x="1026" y="583"/>
      <point x="1013" y="343" type="curve" smooth="yes"/>
      <point x="999.125" y="91.4042"/>
      <point x="834.665" y="-3.61748"/>
      <point x="619.339" y="-16.4578" type="curve"/>
      <point x="621" y="-258" type="line"/>
      <point x="546" y="-258" type="line"/>
    </contour>
  </outline>
</glyph>
<glyph name="ampersand" format="1">
  <advance width="1378"/>
  <unicode hex="0026"/>
  <outline>
    <contour>
      <point x="647" y="-18" type="curve" smooth="yes"/>
      <point x="319" y="-18"/>
      <point x="179" y="134"/>
      <point x="179" y="339" type="curve" smooth="yes"/>
      <point x="179" y="537"/>
      <point x="319" y="663"/>
      <point x="463" y="750" type="curve"/>
      <point x="349" y="869"/>
      <point x="291" y="967"/>
      <point x="291" y="1088" type="curve" smooth="yes"/>
      <point x="291" y="1251"/>
      <point x="425" y="1372"/>
      <point x="645" y="1372" type="curve" smooth="yes"/>
      <point x="844" y="1372"/>
      <point x="951" y="1263"/>
      <point x="951" y="1087" type="curve" smooth="yes"/>
      <point x="951" y="934"/>
      <point x="803" y="815"/>
      <point x="605" y="729" type="curve"/>
      <point x="1037" y="246" type="line"/>
      <point x="1091" y="299"/>
      <point x="1166" y="427"/>
      <point x="1199" y="508" type="curve"/>
      <point x="1280" y="453" type="line"/>
      <point x="1247" y="373"/>
      <point x="1162" y="240"/>
      <point x="1097" y="175" type="curve"/>
      <point x="1243" y="24" type="line"/>
      <point x="1149" y="-19" type="line"/>
      <point x="1034" y="107" type="line"/>
      <point x="914" y="17"/>
      <point x="856" y="-18"/>
    </contour>
    <contour>
      <point x="658" y="72" type="curve" smooth="yes"/>
      <point x="814" y="72"/>
      <point x="872" y="103"/>
      <point x="972" y="182" type="curve"/>
      <point x="523" y="685" type="line"/>
      <point x="387" y="606"/>
      <point x="292" y="493"/>
      <point x="292" y="347" type="curve" smooth="yes"/>
      <point x="292" y="182"/>
      <point x="416" y="72"/>
    </contour>
    <contour>
      <point x="549" y="793" type="curve"/>
      <point x="701" y="863"/>
      <point x="848" y="966"/>
      <point x="848" y="1093" type="curve" smooth="yes"/>
      <point x="848" y="1214"/>
      <point x="784" y="1282"/>
      <point x="645" y="1282" type="curve" smooth="yes"/>
      <point x="513" y="1282"/>
      <point x="389" y="1209"/>
      <point x="389" y="1093" type="curve" smooth="yes"/>
      <point x="389" y="995"/>
      <point x="422" y="910"/>
    </contour>
  </outline>
</glyph>
<glyph name="quotesingle" format="1">
  <advance width="251"/>
  <unicode hex="0027"/>
  <outline>
    <contour>
      <point x="88" y="918" type="line"/>
      <point x="156" y="918" type="line"/>
      <point x="169" y="1354" type="line"/>
      <point x="78" y="1354" type="line"/>
    </contour>
  </outline>
</glyph>
<glyph name="parenleft" format="1">
  <advance width="650"/>
  <unicode hex="0028"/>
  <outline>
    <contour>
      <point x="427" y="-247" type="curve"/>
      <point x="535" y="-247" type="line"/>
      <point x="348" y="40"/>
      <point x="303" y="356"/>
      <point x="303" y="655" type="curve" smooth="yes"/>
      <point x="303" y="925"/>
      <point x="343" y="1163"/>
      <point x="536" y="1464" type="curve"/>
      <point x="425" y="1464" type="line"/>
      <point x="265" y="1225"/>
      <point x="188" y="945"/>
      <point x="188" y="650" type="curve" smooth="yes"/>
      <point x="188" y="313"/>
      <point x="273" y="-33"/>
    </contour>
  </outline>
</glyph>
<glyph name="parenright" format="1">
  <advance width="650"/>
  <unicode hex="0029"/>
  <outline>
    <contour>
      <point x="115" y="-247" type="curve"/>
      <point x="223" y="-247" type="line"/>
      <point x="377" y="-33"/>
      <point x="462" y="313"/>
      <point x="462" y="650" type="curve" smooth="yes"/>
      <point x="462" y="945"/>
      <point x="385" y="1225"/>
      <point x="225" y="1464" type="curve"/>
      <point x="114" y="1464" type="line"/>
      <point x="307" y="1163"/>
      <point x="347" y="925"/>
      <point x="347" y="655" type="curve" smooth="yes"/>
      <point x="347" y="356"/>
      <point x="302" y="40"/>
    </contour>
  </outline>
</glyph>
<glyph name="asterisk" format="1">
  <advance width="1124"/>
  <unicode hex="002A"/>
  <outline>
    <contour>
      <point x="365" y="548" type="line"/>
      <point x="268" y="617" type="line"/>
      <point x="503" y="943" type="line"/>
      <point x="155" y="1024" type="line"/>
      <point x="186" y="1141" type="line"/>
      <point x="531" y="995" type="line"/>
      <point x="496" y="1390" type="line"/>
      <point x="626" y="1390" type="line"/>
      <point x="590" y="995" type="line"/>
      <point x="936" y="1141" type="line"/>
      <point x="969" y="1024" type="line"/>
      <point x="614" y="943" type="line"/>
      <point x="651" y="891"/>
      <point x="726" y="784"/>
      <point x="857" y="617" type="curve"/>
      <point x="777" y="567"/>
      <point x="838" y="599"/>
      <point x="758" y="549" type="curve"/>
      <point x="555" y="907" type="line"/>
    </contour>
  </outline>
</glyph>
<glyph name="plus" format="1">
  <advance width="1059"/>
  <unicode hex="002B"/>
  <outline>
    <contour>
      <point x="491" y="175" type="line"/>
      <point x="577" y="175" type="line"/>
      <point x="577" y="552" type="line"/>
      <point x="923" y="552" type="line"/>
      <point x="923" y="623" type="line"/>
      <point x="577" y="623" type="line"/>
      <point x="577" y="992" type="line"/>
      <point x="491" y="992" type="line"/>
      <point x="491" y="623" type="line"/>
      <point x="136" y="623" type="line"/>
      <point x="136" y="552" type="line"/>
      <point x="491" y="552" type="line"/>
    </contour>
  </outline>
</glyph>
<glyph name="comma" format="1">
  <advance width="431"/>
  <unicode hex="002C"/>
  <outline>
    <contour>
      <point x="138.0" y="-266.0" type="curve"/>
      <point x="193.0" y="-266.0" type="line"/>
      <point x="193" y="-266"/>
      <point x="277" y="124"/>
      <point x="277" y="162" type="curve"/>
      <point x="277" y="192" type="line"/>
      <point x="155.0" y="192.0" type="line"/>
      <point x="155" y="95"/>
      <point x="138" y="-266"/>
    </contour>
  </outline>
</glyph>
<glyph name="hyphen" format="1">
  <advance width="722"/>
  <unicode hex="002D"/>
  <outline>
    <contour>
      <point x="138" y="482" type="line"/>
      <point x="562" y="482" type="line"/>
      <point x="562" y="568" type="line"/>
      <point x="138" y="568" type="line"/>
    </contour>
  </outline>
</glyph>
<glyph name="period" format="1">
  <advance width="433"/>
  <unicode hex="002E"/>
  <outline>
    <contour>
      <point x="223" y="-16" type="curve" smooth="yes"/>
      <point x="287" y="-16"/>
      <point x="306" y="29"/>
      <point x="306" y="68" type="curve" smooth="yes"/>
      <point x="306" y="107"/>
      <point x="287" y="152"/>
      <point x="223" y="152" type="curve" smooth="yes"/>
      <point x="158" y="152"/>
      <point x="140" y="107"/>
      <point x="140" y="68" type="curve" smooth="yes"/>
      <point x="140" y="30"/>
      <point x="159" y="-16"/>
    </contour>
  </outline>
</glyph>
<glyph name="slash" format="1">
  <advance width="933"/>
  <unicode hex="002F"/>
  <outline>
    <contour>
      <point x="109" y="-218" type="line"/>
      <point x="179" y="-218" type="line"/>
      <point x="842" y="1314" type="line"/>
      <point x="770" y="1314" type="line"/>
    </contour>
  </outline>
</glyph>
<glyph name="zero" format="1">
  <advance width="1150"/>
  <unicode hex="0030"/>
  <outline>
    <contour>
      <point x="581" y="63" type="curve" smooth="yes"/>
      <point x="389" y="63"/>
      <point x="243" y="223"/>
      <point x="243" y="673" type="curve"/>
      <point x="241" y="1098"/>
      <point x="388" y="1273"/>
      <point x="581" y="1273" type="curve" smooth="yes"/>
      <point x="773" y="1273"/>
      <point x="908" y="1137"/>
      <point x="908" y="675" type="curve" smooth="yes"/>
      <point x="908" y="224"/>
      <point x="773" y="63"/>
    </contour>
    <contour>
      <point x="581" y="-31" type="curve" smooth="yes"/>
      <point x="884" y="-31"/>
      <point x="1018" y="241"/>
      <point x="1018" y="670" type="curve" smooth="yes"/>
      <point x="1018" y="1128"/>
      <point x="863" y="1368"/>
      <point x="581" y="1368" type="curve" smooth="yes"/>
      <point x="298" y="1368"/>
      <point x="132" y="1126"/>
      <point x="132" y="670" type="curve" smooth="yes"/>
      <point x="132" y="241"/>
      <point x="278" y="-31"/>
    </contour>
  </outline>
</glyph>
<glyph name="one" format="1">
  <advance width="1120"/>
  <unicode hex="0031"/>
  <outline>
    <contour>
      <point x="222" y="0" type="line"/>
      <point x="988" y="0" type="line"/>
      <point x="988" y="88" type="line"/>
      <point x="637" y="88" type="line"/>
      <point x="681" y="44" type="line"/>
      <point x="681" y="1354" type="line"/>
      <point x="569" y="1354" type="line"/>
      <point x="501" y="1306"/>
      <point x="322" y="1255"/>
      <point x="260" y="1246" type="curve"/>
      <point x="260" y="1153" type="line"/>
      <point x="332" y="1161"/>
      <point x="526" y="1215"/>
      <point x="603" y="1274" type="curve"/>
      <point x="567" y="1290" type="line"/>
      <point x="567" y="46" type="line"/>
      <point x="609" y="88" type="line"/>
      <point x="222" y="88" type="line"/>
    </contour>
  </outline>
</glyph>
<glyph name="two" format="1">
  <advance width="1120"/>
  <unicode hex="0032"/>
  <outline>
    <contour>
      <point x="140" y="0" type="line"/>
      <point x="945" y="0" type="line"/>
      <point x="950" y="88" type="line"/>
      <point x="192" y="88" type="line"/>
      <point x="201" y="46" type="line"/>
      <point x="701" y="556" type="line" smooth="yes"/>
      <point x="879" y="738"/>
      <point x="938" y="806"/>
      <point x="938" y="1012" type="curve" smooth="yes"/>
      <point x="938" y="1299"/>
      <point x="651" y="1372"/>
      <point x="512" y="1372" type="curve" smooth="yes"/>
      <point x="364" y="1372"/>
      <point x="216" y="1320"/>
      <point x="136" y="1269" type="curve"/>
      <point x="171" y="1188" type="line"/>
      <point x="272" y="1247"/>
      <point x="394" y="1282"/>
      <point x="512" y="1282" type="curve" smooth="yes"/>
      <point x="632" y="1282"/>
      <point x="830" y="1237"/>
      <point x="830" y="995" type="curve" smooth="yes"/>
      <point x="830" y="812"/>
      <point x="753" y="752"/>
      <point x="623" y="618" type="curve" smooth="yes"/>
      <point x="109" y="88" type="line"/>
    </contour>
  </outline>
</glyph>
<glyph name="three" format="1">
  <advance width="1120"/>
  <unicode hex="0033"/>
  <outline>
    <contour>
      <point x="527" y="-18" type="curve" smooth="yes"/>
      <point x="818" y="-18"/>
      <point x="986" y="129"/>
      <point x="986" y="366" type="curve" smooth="yes"/>
      <point x="986" y="581"/>
      <point x="851" y="690"/>
      <point x="669" y="721" type="curve"/>
      <point x="841" y="755"/>
      <point x="951" y="842"/>
      <point x="951" y="1042" type="curve" smooth="yes"/>
      <point x="951" y="1258"/>
      <point x="756" y="1372"/>
      <point x="526" y="1372" type="curve" smooth="yes"/>
      <point x="392" y="1372"/>
      <point x="261" y="1335"/>
      <point x="149" y="1266" type="curve"/>
      <point x="188" y="1186" type="line"/>
      <point x="284" y="1247"/>
      <point x="413" y="1282"/>
      <point x="527" y="1282" type="curve" smooth="yes"/>
      <point x="697" y="1282"/>
      <point x="847" y="1211"/>
      <point x="847" y="1036" type="curve" smooth="yes"/>
      <point x="847" y="803"/>
      <point x="622" y="774"/>
      <point x="428" y="766" type="curve"/>
      <point x="394" y="766" type="line"/>
      <point x="394" y="672" type="line"/>
      <point x="426" y="672" type="line" smooth="yes"/>
      <point x="670" y="667"/>
      <point x="882" y="627"/>
      <point x="882" y="362" type="curve" smooth="yes"/>
      <point x="882" y="160"/>
      <point x="743" y="72"/>
      <point x="528" y="72" type="curve" smooth="yes"/>
      <point x="384" y="72"/>
      <point x="262" y="120"/>
      <point x="200" y="158" type="curve"/>
      <point x="159" y="81" type="line"/>
      <point x="213" y="47"/>
      <point x="342" y="-18"/>
    </contour>
  </outline>
</glyph>
<glyph name="four" format="1">
  <advance width="1120"/>
  <unicode hex="0034"/>
  <outline>
    <contour>
      <point x="757" y="0" type="line"/>
      <point x="861" y="0" type="line"/>
      <point x="861" y="366" type="line"/>
      <point x="1022" y="366" type="line"/>
      <point x="1032" y="452" type="line"/>
      <point x="861" y="452" type="line"/>
      <point x="861" y="1354" type="line"/>
      <point x="767" y="1354" type="line"/>
      <point x="116" y="480" type="line"/>
      <point x="116" y="366" type="line"/>
      <point x="757" y="366" type="line"/>
    </contour>
    <contour>
      <point x="227" y="454" type="line"/>
      <point x="756" y="1197" type="line"/>
      <point x="756" y="454" type="line"/>
    </contour>
  </outline>
</glyph>
<glyph name="five" format="1">
  <advance width="1120"/>
  <unicode hex="0035"/>
  <outline>
    <contour>
      <point x="518" y="-19" type="curve" smooth="yes"/>
      <point x="772" y="-19"/>
      <point x="997" y="130"/>
      <point x="997" y="433" type="curve" smooth="yes"/>
      <point x="997" y="651"/>
      <point x="859" y="840"/>
      <point x="577" y="840" type="curve" smooth="yes"/>
      <point x="481" y="840"/>
      <point x="400" y="820"/>
      <point x="308" y="759" type="curve"/>
      <point x="345" y="1265" type="line"/>
      <point x="926" y="1265" type="line"/>
      <point x="936" y="1354" type="line"/>
      <point x="256" y="1354" type="line"/>
      <point x="209" y="656" type="line"/>
      <point x="311" y="647" type="line"/>
      <point x="368" y="709"/>
      <point x="472" y="750"/>
      <point x="575" y="750" type="curve" smooth="yes"/>
      <point x="806" y="750"/>
      <point x="883" y="597"/>
      <point x="883" y="428" type="curve" smooth="yes"/>
      <point x="883" y="192"/>
      <point x="711" y="72"/>
      <point x="507" y="72" type="curve" smooth="yes"/>
      <point x="403" y="72"/>
      <point x="290" y="104"/>
      <point x="187" y="168" type="curve"/>
      <point x="149" y="86" type="line"/>
      <point x="264" y="16"/>
      <point x="395" y="-19"/>
    </contour>
  </outline>
</glyph>
<glyph name="six" format="1">
  <advance width="1120"/>
  <unicode hex="0036"/>
  <outline>
    <contour>
      <point x="584" y="-18" type="curve" smooth="yes"/>
      <point x="850" y="-18"/>
      <point x="1004" y="173"/>
      <point x="1004" y="397" type="curve" smooth="yes"/>
      <point x="1004" y="638"/>
      <point x="810" y="794"/>
      <point x="608" y="794" type="curve" smooth="yes"/>
      <point x="329" y="794"/>
      <point x="202" y="557"/>
      <point x="194" y="534" type="curve"/>
      <point x="210" y="524" type="line"/>
      <point x="210" y="524"/>
      <point x="352" y="707"/>
      <point x="467" y="876" type="curve" smooth="yes"/>
      <point x="793" y="1354" type="line"/>
      <point x="670" y="1354" type="line"/>
      <point x="383" y="931" type="line" smooth="yes"/>
      <point x="249" y="734"/>
      <point x="167" y="610"/>
      <point x="167" y="400" type="curve" smooth="yes"/>
      <point x="167" y="194"/>
      <point x="302" y="-18"/>
    </contour>
    <contour>
      <point x="582" y="72" type="curve" smooth="yes"/>
      <point x="373" y="72"/>
      <point x="270" y="225"/>
      <point x="270" y="390" type="curve" smooth="yes"/>
      <point x="270" y="647"/>
      <point x="485" y="702"/>
      <point x="590" y="702" type="curve" smooth="yes"/>
      <point x="784" y="702"/>
      <point x="900" y="572"/>
      <point x="900" y="397" type="curve" smooth="yes"/>
      <point x="900" y="229"/>
      <point x="789" y="72"/>
    </contour>
  </outline>
</glyph>
<glyph name="colon" format="1">
  <advance width="461"/>
  <unicode hex="003A"/>
  <outline>
    <contour>
      <point x="157" y="0" type="line"/>
      <point x="292" y="0" type="line"/>
      <point x="292" y="161" type="line"/>
      <point x="157" y="161" type="line"/>
    </contour>
    <contour>
      <point x="157" y="821" type="line"/>
      <point x="292" y="821" type="line"/>
      <point x="292" y="986" type="line"/>
      <point x="157" y="986" type="line"/>
    </contour>
  </outline>
</glyph>
<glyph name="semicolon" format="1">
  <advance width="449"/>
  <unicode hex="003B"/>
  <outline>
    <contour>
      <point x="157.0" y="821.0" type="line"/>
      <point x="292.0" y="821.0" type="line"/>
      <point x="292.0" y="986.0" type="line"/>
      <point x="157.0" y="986.0" type="line"/>
    </contour>
    <contour>
      <point x="122" y="-279" type="line"/>
      <point x="183" y="-279" type="line"/>
      <point x="296" y="134" type="line"/>
      <point x="174" y="134" type="line"/>
    </contour>
  </outline>
</glyph>
<glyph name="less" format="1">
  <advance width="1129"/>
  <unicode hex="003C"/>
  <outline>
    <contour>
      <point x="978" y="109" type="line"/>
      <point x="979" y="207" type="line"/>
      <point x="214" y="563" type="line"/>
      <point x="981" y="939" type="line"/>
      <point x="981" y="1041" type="line"/>
      <point x="107" y="592" type="line"/>
      <point x="107" y="527" type="line"/>
    </contour>
  </outline>
</glyph>
<glyph name="equal" format="1">
  <advance width="1161"/>
  <unicode hex="003D"/>
  <outline>
    <contour>
      <point x="157" y="354" type="line"/>
      <point x="157" y="442" type="line"/>
      <point x="1006" y="442" type="line"/>
      <point x="1006" y="354" type="line"/>
    </contour>
    <contour>
      <point x="155" y="758" type="line"/>
      <point x="155" y="843" type="line"/>
      <point x="1006" y="843" type="line"/>
      <point x="1006" y="758" type="line"/>
    </contour>
  </outline>
</glyph>
<glyph name="greater" format="1">
  <advance width="1142"/>
  <unicode hex="003E"/>
  <outline>
    <contour>
      <point x="137" y="116" type="line"/>
      <point x="1012" y="525" type="line"/>
      <point x="1012" y="591" type="line"/>
      <point x="140" y="1049" type="line"/>
      <point x="140" y="948" type="line"/>
      <point x="894" y="563" type="line"/>
      <point x="137" y="215" type="line"/>
    </contour>
  </outline>
</glyph>
<glyph name="question" format="1">
  <advance width="854"/>
  <unicode hex="003F"/>
  <outline>
    <contour>
      <point x="379" y="374" type="line"/>
      <point x="479" y="714"/>
      <point x="702" y="855"/>
      <point x="702" y="1122" type="curve" smooth="yes"/>
      <point x="702" y="1294"/>
      <point x="568" y="1403"/>
      <point x="395" y="1403" type="curve" smooth="yes"/>
      <point x="278" y="1403"/>
      <point x="183" y="1367"/>
      <point x="115" y="1320" type="curve"/>
      <point x="133" y="1224" type="line"/>
      <point x="171" y="1248"/>
      <point x="276" y="1307"/>
      <point x="380" y="1307" type="curve" smooth="yes"/>
      <point x="512" y="1307"/>
      <point x="593" y="1247"/>
      <point x="593" y="1111" type="curve"/>
      <point x="593" y="873"/>
      <point x="325" y="595"/>
      <point x="325" y="374" type="curve"/>
    </contour>
    <contour>
      <point x="357" y="-14" type="curve" smooth="yes"/>
      <point x="429" y="-14"/>
      <point x="451" y="34"/>
      <point x="451" y="78" type="curve" smooth="yes"/>
      <point x="451" y="120"/>
      <point x="429" y="168"/>
      <point x="357" y="168" type="curve" smooth="yes"/>
      <point x="286" y="168"/>
      <point x="266" y="120"/>
      <point x="266" y="78" type="curve" smooth="yes"/>
      <point x="266" y="36"/>
      <point x="286" y="-14"/>
    </contour>
  </outline>
</glyph>
<glyph name="C" format="1">
  <advance width="1234"/>
  <unicode hex="0043"/>
  <outline>
    <contour>
      <point x="789" y="-18" type="curve" smooth="yes"/>
      <point x="998" y="-18"/>
      <point x="1117" y="49"/>
      <point x="1139" y="63" type="curve"/>
      <point x="1107" y="147" type="line"/>
      <point x="1075" y="132"/>
      <point x="972" y="72"/>
      <point x="802" y="72" type="curve" smooth="yes"/>
      <point x="441" y="72"/>
      <point x="254" y="340"/>
      <point x="254" y="675" type="curve" smooth="yes"/>
      <point x="254" y="1010"/>
      <point x="432" y="1282"/>
      <point x="788" y="1282" type="curve" smooth="yes"/>
      <point x="906" y="1282"/>
      <point x="1023" y="1248"/>
      <point x="1104" y="1195" type="curve"/>
      <point x="1150" y="1267" type="line"/>
      <point x="1072" y="1327"/>
      <point x="943" y="1372"/>
      <point x="775" y="1372" type="curve" smooth="yes"/>
      <point x="362" y="1372"/>
      <point x="140" y="1064"/>
      <point x="140" y="681" type="curve" smooth="yes"/>
      <point x="140" y="265"/>
      <point x="402" y="-18"/>
    </contour>
  </outline>
</glyph>
<glyph name="E" format="1">
  <advance width="1140"/>
  <unicode hex="0045"/>
  <outline>
    <contour>
      <point x="214" y="0" type="line"/>
      <point x="1011" y="0" type="line"/>
      <point x="1020" y="88" type="line"/>
      <point x="287" y="88" type="line"/>
      <point x="328" y="46" type="line"/>
      <point x="328" y="685" type="line"/>
      <point x="287" y="652" type="line"/>
      <point x="945" y="652" type="line"/>
      <point x="945" y="740" type="line"/>
      <point x="287" y="740" type="line"/>
      <point x="328" y="702" type="line"/>
      <point x="328" y="1302" type="line"/>
      <point x="289" y="1266" type="line"/>
      <point x="1016" y="1266" type="line"/>
      <point x="1020" y="1354" type="line"/>
      <point x="214" y="1354" type="line"/>
    </contour>
  </outline>
</glyph>
<glyph name="F" format="1">
  <advance width="1016"/>
  <unicode hex="0046"/>
  <outline>
    <contour>
      <point x="214" y="0" type="line"/>
      <point x="332" y="0" type="line"/>
      <point x="332" y="670" type="line"/>
      <point x="284" y="639" type="line"/>
      <point x="899" y="639" type="line"/>
      <point x="899" y="722" type="line"/>
      <point x="278" y="722" type="line"/>
      <point x="332" y="685" type="line"/>
      <point x="332" y="1315" type="line"/>
      <point x="278" y="1266" type="line"/>
      <point x="941" y="1266" type="line"/>
      <point x="950" y="1354" type="line"/>
      <point x="214" y="1354" type="line"/>
    </contour>
  </outline>
</glyph>
<glyph name="G" format="1">
  <advance width="1399"/>
  <unicode hex="0047"/>
  <outline>
    <contour>
      <point x="782" y="-18" type="curve" smooth="yes"/>
      <point x="967" y="-18"/>
      <point x="1111" y="11"/>
      <point x="1245" y="60" type="curve"/>
      <point x="1245" y="676" type="line"/>
      <point x="827" y="676" type="line"/>
      <point x="818" y="577" type="line"/>
      <point x="1179" y="577" type="line"/>
      <point x="1131" y="625" type="line"/>
      <point x="1131" y="70" type="line"/>
      <point x="1169" y="124" type="line"/>
      <point x="1117" y="105"/>
      <point x="970" y="72"/>
      <point x="819" y="72" type="curve" smooth="yes"/>
      <point x="412" y="72"/>
      <point x="254" y="313"/>
      <point x="254" y="673" type="curve" smooth="yes"/>
      <point x="254" y="1009"/>
      <point x="452" y="1282"/>
      <point x="805" y="1282" type="curve" smooth="yes"/>
      <point x="1045" y="1282"/>
      <point x="1127" y="1207"/>
      <point x="1175" y="1177" type="curve"/>
      <point x="1204" y="1265" type="line"/>
      <point x="1106" y="1344"/>
      <point x="962" y="1372"/>
      <point x="808" y="1372" type="curve" smooth="yes"/>
      <point x="378" y="1372"/>
      <point x="140" y="1060"/>
      <point x="140" y="672" type="curve" smooth="yes"/>
      <point x="140" y="286"/>
      <point x="350" y="-18"/>
    </contour>
  </outline>
</glyph>
<glyph name="H" format="1">
  <advance width="1424"/>
  <unicode hex="0048"/>
  <outline>
    <contour>
      <point x="210.0" y="0.0" type="line"/>
      <point x="324.0" y="0.0" type="line"/>
      <point x="324.0" y="688.0" type="line"/>
      <point x="273.0" y="655.0" type="line"/>
      <point x="1156.0" y="655.0" type="line"/>
      <point x="1100.0" y="688.0" type="line"/>
      <point x="1100.0" y="0.0" type="line"/>
      <point x="1214.0" y="0.0" type="line"/>
      <point x="1214.0" y="1354.0" type="line"/>
      <point x="1100.0" y="1354.0" type="line"/>
      <point x="1100.0" y="703.0" type="line"/>
      <point x="1154.0" y="736.0" type="line"/>
      <point x="273.0" y="736.0" type="line"/>
      <point x="324.0" y="703.0" type="line"/>
      <point x="324.0" y="1354.0" type="line"/>
      <point x="210.0" y="1354.0" type="line"/>
    </contour>
  </outline>
</glyph>
<glyph name="I" format="1">
  <advance width="702"/>
  <unicode hex="0049"/>
  <outline>
    <contour>
      <point x="104" y="1354" type="line"/>
      <point x="104" y="1282" type="line"/>
      <point x="329" y="1282" type="line"/>
      <point x="294" y="1320" type="line"/>
      <point x="294" y="29" type="line"/>
      <point x="334" y="72" type="line"/>
      <point x="104" y="72" type="line"/>
      <point x="104" y="0" type="line"/>
      <point x="598" y="0" type="line"/>
      <point x="598" y="72" type="line"/>
      <point x="369" y="72" type="line"/>
      <point x="408" y="31" type="line"/>
      <point x="408" y="1318" type="line"/>
      <point x="373" y="1282" type="line"/>
      <point x="598" y="1282" type="line"/>
      <point x="598" y="1354" type="line"/>
    </contour>
  </outline>
</glyph>
<glyph name="K" format="1">
  <advance width="1211"/>
  <unicode hex="004B"/>
  <outline>
    <contour>
      <point x="214" y="0" type="line"/>
      <point x="328" y="0" type="line"/>
      <point x="328" y="621" type="line"/>
      <point x="285" y="531" type="line"/>
      <point x="490" y="726" type="line"/>
      <point x="426" y="728" type="line"/>
      <point x="1010" y="0" type="line"/>
      <point x="1147" y="0" type="line"/>
      <point x="505" y="798" type="line"/>
      <point x="505" y="737" type="line"/>
      <point x="1119" y="1354" type="line"/>
      <point x="984" y="1354" type="line"/>
      <point x="289" y="653" type="line"/>
      <point x="328" y="644" type="line"/>
      <point x="328" y="1354" type="line"/>
      <point x="214" y="1354" type="line"/>
    </contour>
  </outline>
</glyph>
<glyph name="L" format="1">
  <advance width="1042"/>
  <unicode hex="004C"/>
  <outline>
    <contour>
      <point x="214" y="0" type="line"/>
      <point x="974" y="0" type="line"/>
      <point x="974" y="88" type="line"/>
      <point x="275" y="88" type="line"/>
      <point x="328" y="33" type="line"/>
      <point x="328" y="1354" type="line"/>
      <point x="214" y="1354" type="line"/>
    </contour>
  </outline>
</glyph>
<glyph name="M" format="1">
  <advance width="1690"/>
  <unicode hex="004D"/>
  <outline>
    <contour>
      <point x="214" y="0" type="line"/>
      <point x="321" y="0" type="line"/>
      <point x="321" y="1000" type="line"/>
      <point x="313" y="1324" type="line"/>
      <point x="290" y="1324" type="line"/>
      <point x="790" y="129" type="line"/>
      <point x="905" y="129" type="line"/>
      <point x="1411" y="1324" type="line"/>
      <point x="1380" y="1324" type="line"/>
      <point x="1371" y="1004" type="line"/>
      <point x="1371" y="0" type="line"/>
      <point x="1476" y="0" type="line"/>
      <point x="1476" y="1354" type="line"/>
      <point x="1314" y="1354" type="line"/>
      <point x="821" y="180" type="line"/>
      <point x="876" y="180" type="line"/>
      <point x="383" y="1354" type="line"/>
      <point x="214" y="1354" type="line"/>
    </contour>
  </outline>
</glyph>
<glyph name="N" format="1">
  <advance width="1478"/>
  <unicode hex="004E"/>
  <outline>
    <contour>
      <point x="214" y="0" type="line"/>
      <point x="312" y="0" type="line"/>
      <point x="312" y="844" type="line"/>
      <point x="300" y="1282" type="line"/>
      <point x="267" y="1262" type="line"/>
      <point x="1156" y="0" type="line"/>
      <point x="1264" y="0" type="line"/>
      <point x="1264" y="1354" type="line"/>
      <point x="1166" y="1354" type="line"/>
      <point x="1166" y="497" type="line"/>
      <point x="1174" y="80" type="line"/>
      <point x="1211" y="85" type="line"/>
      <point x="318" y="1354" type="line"/>
      <point x="214" y="1354" type="line"/>
    </contour>
  </outline>
</glyph>
<glyph name="P" format="1">
  <advance width="1164"/>
  <unicode hex="0050"/>
  <outline>
    <contour>
      <point x="214" y="0" type="line"/>
      <point x="328" y="0" type="line"/>
      <point x="328" y="707" type="line"/>
      <point x="275" y="668" type="line"/>
      <point x="650" y="668" type="line" smooth="yes"/>
      <point x="938" y="668"/>
      <point x="1064" y="792"/>
      <point x="1064" y="1029" type="curve" smooth="yes"/>
      <point x="1064" y="1261"/>
      <point x="891" y="1354"/>
      <point x="655" y="1354" type="curve" smooth="yes"/>
      <point x="214" y="1354" type="line"/>
    </contour>
    <contour>
      <point x="657" y="756" type="curve" smooth="yes"/>
      <point x="274" y="756" type="line"/>
      <point x="328" y="721" type="line"/>
      <point x="328" y="1317" type="line"/>
      <point x="274" y="1266" type="line"/>
      <point x="653" y="1266" type="line" smooth="yes"/>
      <point x="826" y="1266"/>
      <point x="950" y="1211"/>
      <point x="950" y="1030" type="curve" smooth="yes"/>
      <point x="950" y="820"/>
      <point x="858" y="756"/>
    </contour>
  </outline>
</glyph>
<glyph name="S" format="1">
  <advance width="1125"/>
  <unicode hex="0053"/>
  <outline>
    <contour>
      <point x="566" y="-18" type="curve" smooth="yes"/>
      <point x="807" y="-18"/>
      <point x="998" y="71"/>
      <point x="1013" y="343" type="curve" smooth="yes"/>
      <point x="1026" y="583"/>
      <point x="864" y="648"/>
      <point x="684" y="720" type="curve" smooth="yes"/>
      <point x="467" y="807" type="line" smooth="yes"/>
      <point x="308" y="871"/>
      <point x="263" y="907"/>
      <point x="263" y="1045" type="curve" smooth="yes"/>
      <point x="263" y="1229"/>
      <point x="438" y="1282"/>
      <point x="592" y="1282" type="curve" smooth="yes"/>
      <point x="759" y="1282"/>
      <point x="875" y="1203"/>
      <point x="902" y="1184" type="curve"/>
      <point x="954" y="1255" type="line"/>
      <point x="894" y="1306"/>
      <point x="756" y="1372"/>
      <point x="604" y="1372" type="curve" smooth="yes"/>
      <point x="397" y="1372"/>
      <point x="160" y="1302"/>
      <point x="160" y="1035" type="curve" smooth="yes"/>
      <point x="160" y="849"/>
      <point x="266" y="786"/>
      <point x="441" y="717" type="curve" smooth="yes"/>
      <point x="663" y="630" type="line" smooth="yes"/>
      <point x="865" y="551"/>
      <point x="920" y="497"/>
      <point x="913" y="339" type="curve" smooth="yes"/>
      <point x="904" y="146"/>
      <point x="782" y="72"/>
      <point x="571" y="72" type="curve" smooth="yes"/>
      <point x="385" y="72"/>
      <point x="282" y="136"/>
      <point x="191" y="205" type="curve"/>
      <point x="146" y="125" type="line"/>
      <point x="193" y="84"/>
      <point x="309" y="-18"/>
    </contour>
  </outline>
</glyph>
<glyph name="T" format="1">
  <advance width="1065"/>
  <unicode hex="0054"/>
  <outline>
    <contour>
      <point x="473" y="0" type="line"/>
      <point x="587" y="0" type="line"/>
      <point x="587" y="1315" type="line"/>
      <point x="547" y="1272" type="line"/>
      <point x="1011" y="1272" type="line"/>
      <point x="1011" y="1354" type="line"/>
      <point x="54" y="1354" type="line"/>
      <point x="54" y="1272" type="line"/>
      <point x="513" y="1272" type="line"/>
      <point x="473" y="1313" type="line"/>
    </contour>
  </outline>
</glyph>
<glyph name="U" format="1">
  <advance width="1378"/>
  <unicode hex="0055"/>
  <outline>
    <contour>
      <point x="690" y="-18" type="curve" smooth="yes"/>
      <point x="1057" y="-18"/>
      <point x="1214" y="210"/>
      <point x="1214" y="499" type="curve" smooth="yes"/>
      <point x="1214" y="1354" type="line"/>
      <point x="1100" y="1354" type="line"/>
      <point x="1100" y="498" type="line" smooth="yes"/>
      <point x="1100" y="222"/>
      <point x="965" y="72"/>
      <point x="690" y="72" type="curve" smooth="yes"/>
      <point x="400" y="72"/>
      <point x="278" y="223"/>
      <point x="278" y="499" type="curve" smooth="yes"/>
      <point x="278" y="1354" type="line"/>
      <point x="164" y="1354" type="line"/>
      <point x="164" y="502" type="line" smooth="yes"/>
      <point x="164" y="202"/>
      <point x="318" y="-18"/>
    </contour>
  </outline>
</glyph>
<glyph name="V" format="1">
  <advance width="1262"/>
  <unicode hex="0056"/>
  <outline>
    <contour>
      <point x="597" y="0" type="line"/>
      <point x="666" y="0" type="line"/>
      <point x="1194" y="1354" type="line"/>
      <point x="1081" y="1354" type="line"/>
      <point x="744" y="455" type="line"/>
      <point x="604" y="90" type="line"/>
      <point x="658" y="90" type="line"/>
      <point x="519" y="450" type="line"/>
      <point x="182" y="1354" type="line"/>
      <point x="68" y="1354" type="line"/>
    </contour>
  </outline>
</glyph>
<glyph name="W" format="1">
  <advance width="1956"/>
  <unicode hex="0057"/>
  <outline>
    <contour>
      <point x="496" y="0" type="line"/>
      <point x="607" y="0" type="line"/>
      <point x="1004" y="1272" type="line"/>
      <point x="957" y="1272" type="line"/>
      <point x="1352" y="0" type="line"/>
      <point x="1466" y="0" type="line"/>
      <point x="1892" y="1353" type="line"/>
      <point x="1783" y="1353" type="line"/>
      <point x="1391" y="76" type="line"/>
      <point x="1431" y="76" type="line"/>
      <point x="1037" y="1315" type="line"/>
      <point x="920" y="1315" type="line"/>
      <point x="533" y="74" type="line"/>
      <point x="572" y="74" type="line"/>
      <point x="169" y="1353" type="line"/>
      <point x="64" y="1353" type="line"/>
    </contour>
  </outline>
</glyph>
<glyph name="X" format="1">
  <advance width="1266"/>
  <unicode hex="0058"/>
  <outline>
    <contour>
      <point x="150" y="0" type="line"/>
      <point x="255" y="0" type="line"/>
      <point x="644" y="622" type="line"/>
      <point x="691" y="650" type="line"/>
      <point x="1132" y="1354" type="line"/>
      <point x="1020" y="1354" type="line"/>
      <point x="638" y="729" type="line"/>
      <point x="585" y="689" type="line"/>
    </contour>
    <contour>
      <point x="1032" y="0" type="line"/>
      <point x="1132" y="0" type="line"/>
      <point x="237" y="1354" type="line"/>
      <point x="134" y="1354" type="line"/>
    </contour>
  </outline>
</glyph>
<glyph name="Y" format="1">
  <advance width="1146"/>
  <unicode hex="0059"/>
  <outline>
    <contour>
      <point x="537" y="0" type="line"/>
      <point x="645" y="0" type="line"/>
      <point x="645" y="624" type="line"/>
      <point x="609" y="501" type="line"/>
      <point x="1084" y="1354" type="line"/>
      <point x="978" y="1354" type="line"/>
      <point x="569" y="619" type="line"/>
      <point x="614" y="619" type="line"/>
      <point x="167" y="1354" type="line"/>
      <point x="62" y="1354" type="line"/>
      <point x="578" y="495" type="line"/>
      <point x="537" y="625" type="line"/>
    </contour>
  </outline>
</glyph>
<glyph name="Z" format="1">
  <advance width="1131"/>
  <unicode hex="005A"/>
  <outline>
    <contour>
      <point x="136" y="0" type="line"/>
      <point x="1008" y="0" type="line"/>
      <point x="1019" y="88" type="line"/>
      <point x="202" y="88" type="line"/>
      <point x="221" y="44" type="line"/>
      <point x="1013" y="1271" type="line"/>
      <point x="1004" y="1354" type="line"/>
      <point x="178" y="1354" type="line"/>
      <point x="178" y="1266" type="line"/>
      <point x="941" y="1266" type="line"/>
      <point x="914" y="1297" type="line"/>
      <point x="136" y="93" type="line"/>
    </contour>
  </outline>
</glyph>
<glyph name="bracketleft" format="1">
  <advance width="599"/>
  <unicode hex="005B"/>
  <outline>
    <contour>
      <point x="172" y="-287" type="line"/>
      <point x="172" y="1354" type="line"/>
      <point x="571" y="1354" type="line"/>
      <point x="571" y="1272" type="line"/>
      <point x="265" y="1272" type="line"/>
      <point x="265" y="-207" type="line"/>
      <point x="571" y="-207" type="line"/>
      <point x="571" y="-287" type="line"/>
    </contour>
  </outline>
</glyph>
<glyph name="backslash" format="1">
  <advance width="897"/>
  <unicode hex="005C"/>
  <outline>
    <contour>
      <point x="667" y="-56" type="line"/>
      <point x="127" y="1354" type="line"/>
      <point x="205" y="1354" type="line"/>
      <point x="746" y="-56" type="line"/>
    </contour>
  </outline>
</glyph>
<glyph name="bracketright" format="1">
  <advance width="601"/>
  <unicode hex="005D"/>
  <outline>
    <contour>
      <point x="35" y="-287" type="line"/>
      <point x="35" y="-207" type="line"/>
      <point x="341" y="-207" type="line"/>
      <point x="341" y="1272" type="line"/>
      <point x="35" y="1272" type="line"/>
      <point x="35" y="1354" type="line"/>
      <point x="433" y="1354" type="line"/>
      <point x="433" y="-287" type="line"/>
    </contour>
  </outline>
</glyph>
<glyph name="asciicircum" format="1">
  <advance width="1242"/>
  <unicode hex="005E"/>
  <outline>
    <contour>
      <point x="182" y="566" type="line"/>
      <point x="576" y="1402" type="line"/>
      <point x="645" y="1402" type="line"/>
      <point x="1060" y="566" type="line"/>
      <point x="978" y="566" type="line"/>
      <point x="612" y="1307" type="line"/>
      <point x="262" y="566" type="line"/>
    </contour>
  </outline>
</glyph>
<glyph name="grave" format="1">
  <advance width="689"/>
  <unicode hex="0060"/>
  <outline>
    <contour>
      <point x="431" y="1176" type="line"/>
      <point x="486" y="1176" type="line"/>
      <point x="325" y="1523" type="line"/>
      <point x="201" y="1523" type="line"/>
    </contour>
  </outline>
</glyph>
<glyph name="a" format="1">
  <advance width="1076"/>
  <unicode hex="0061"/>
  <outline>
    <contour>
      <point x="425" y="-14" type="curve" smooth="yes"/>
      <point x="546" y="-14"/>
      <point x="705" y="16"/>
      <point x="828" y="198" type="curve"/>
      <point x="795" y="198" type="line"/>
      <point x="818" y="1" type="line"/>
      <point x="898" y="1" type="line"/>
      <point x="898" y="656" type="line" smooth="yes"/>
      <point x="898" y="918"/>
      <point x="742" y="1005"/>
      <point x="519" y="1005" type="curve" smooth="yes"/>
      <point x="406" y="1005"/>
      <point x="262" y="968"/>
      <point x="182" y="923" type="curve"/>
      <point x="219" y="842" type="line"/>
      <point x="308" y="891"/>
      <point x="438" y="919"/>
      <point x="539" y="919" type="curve" smooth="yes"/>
      <point x="710" y="919"/>
      <point x="787" y="828"/>
      <point x="787" y="676" type="curve" smooth="yes"/>
      <point x="787" y="544" type="line"/>
      <point x="817" y="577" type="line"/>
      <point x="596" y="577" type="line" smooth="yes"/>
      <point x="256" y="577"/>
      <point x="118" y="465"/>
      <point x="118" y="256" type="curve" smooth="yes"/>
      <point x="118" y="81"/>
      <point x="245" y="-14"/>
    </contour>
    <contour>
      <point x="415" y="72" type="curve" smooth="yes"/>
      <point x="325" y="72"/>
      <point x="230" y="126"/>
      <point x="230" y="257" type="curve" smooth="yes"/>
      <point x="230" y="412"/>
      <point x="294" y="500"/>
      <point x="617" y="500" type="curve" smooth="yes"/>
      <point x="817" y="500" type="line"/>
      <point x="787" y="532" type="line"/>
      <point x="787" y="221" type="line"/>
      <point x="817" y="329" type="line"/>
      <point x="715" y="134"/>
      <point x="577" y="72"/>
    </contour>
  </outline>
</glyph>
<glyph name="c" format="1">
  <advance width="937"/>
  <unicode hex="0063"/>
  <outline>
    <contour>
      <point x="579" y="-18" type="curve" smooth="yes"/>
      <point x="690" y="-18"/>
      <point x="795" y="15"/>
      <point x="832" y="46" type="curve"/>
      <point x="804" y="119" type="line"/>
      <point x="762" y="95"/>
      <point x="676" y="68"/>
      <point x="595" y="68" type="curve" smooth="yes"/>
      <point x="342" y="68"/>
      <point x="232" y="265"/>
      <point x="232" y="483" type="curve" smooth="yes"/>
      <point x="232" y="739"/>
      <point x="373" y="918"/>
      <point x="591" y="918" type="curve" smooth="yes"/>
      <point x="716" y="918"/>
      <point x="794" y="865"/>
      <point x="794" y="865" type="curve"/>
      <point x="832" y="942" type="line"/>
      <point x="832" y="942"/>
      <point x="740" y="1004"/>
      <point x="579" y="1004" type="curve" smooth="yes"/>
      <point x="311" y="1004"/>
      <point x="120" y="784"/>
      <point x="120" y="483" type="curve" smooth="yes"/>
      <point x="120" y="204"/>
      <point x="298" y="-18"/>
    </contour>
  </outline>
</glyph>
<glyph name="g" format="1">
  <advance width="1200"/>
  <unicode hex="0067"/>
  <outline>
    <contour>
      <point x="570" y="87" type="curve" smooth="yes"/>
      <point x="319" y="87"/>
      <point x="234" y="326"/>
      <point x="234" y="490" type="curve" smooth="yes"/>
      <point x="234" y="677"/>
      <point x="318" y="918"/>
      <point x="573" y="918" type="curve" smooth="yes"/>
      <point x="827" y="918"/>
      <point x="916" y="748"/>
      <point x="916" y="548" type="curve" smooth="yes"/>
      <point x="916" y="440" type="line" smooth="yes"/>
      <point x="916" y="267"/>
      <point x="817" y="87"/>
    </contour>
    <contour>
      <point x="495" y="-415" type="curve" smooth="yes"/>
      <point x="901" y="-415"/>
      <point x="1030" y="-185"/>
      <point x="1030" y="89" type="curve" smooth="yes"/>
      <point x="1030" y="986" type="line"/>
      <point x="923" y="986" type="line"/>
      <point x="910" y="763" type="line"/>
      <point x="941" y="763" type="line"/>
      <point x="894" y="899"/>
      <point x="775" y="1004"/>
      <point x="580" y="1004" type="curve" smooth="yes"/>
      <point x="232" y="1004"/>
      <point x="120" y="731"/>
      <point x="120" y="481" type="curve" smooth="yes"/>
      <point x="120" y="273"/>
      <point x="243" y="0"/>
      <point x="566" y="0" type="curve" smooth="yes"/>
      <point x="789" y="0"/>
      <point x="916" y="142"/>
      <point x="950" y="269" type="curve"/>
      <point x="916" y="267" type="line"/>
      <point x="916" y="89" type="line" smooth="yes"/>
      <point x="916" y="-189"/>
      <point x="806" y="-327"/>
      <point x="483" y="-327" type="curve" smooth="yes"/>
      <point x="408" y="-327"/>
      <point x="288" y="-316"/>
      <point x="288" y="-315" type="curve"/>
      <point x="288" y="-403" type="line"/>
      <point x="288" y="-403"/>
      <point x="392" y="-415"/>
    </contour>
  </outline>
</glyph>
<glyph name="i" format="1">
  <advance width="470"/>
  <unicode hex="0069"/>
  <outline>
    <contour>
      <point x="180" y="0" type="line"/>
      <point x="294" y="0" type="line"/>
      <point x="294" y="986" type="line"/>
      <point x="180" y="986" type="line"/>
    </contour>
    <contour>
      <point x="180" y="1209" type="line"/>
      <point x="294" y="1209" type="line"/>
      <point x="294" y="1354" type="line"/>
      <point x="180" y="1354" type="line"/>
    </contour>
  </outline>
</glyph>
<glyph name="j" format="1">
  <advance width="501"/>
  <unicode hex="006A"/>
  <outline>
    <contour>
      <point x="34" y="-402" type="line"/>
      <point x="86" y="-402" type="line" smooth="yes"/>
      <point x="247" y="-402"/>
      <point x="331" y="-359"/>
      <point x="331" y="-139" type="curve" smooth="yes"/>
      <point x="331" y="986" type="line"/>
      <point x="215" y="986" type="line"/>
      <point x="215" y="-84" type="line" smooth="yes"/>
      <point x="215" y="-270"/>
      <point x="214" y="-303"/>
      <point x="71" y="-303" type="curve" smooth="yes"/>
      <point x="34" y="-303" type="line"/>
    </contour>
    <contour>
      <point x="215" y="1209" type="line"/>
      <point x="331" y="1209" type="line"/>
      <point x="331" y="1354" type="line"/>
      <point x="215" y="1354" type="line"/>
    </contour>
  </outline>
</glyph>
<glyph name="k" format="1">
  <advance width="1021"/>
  <unicode hex="006B"/>
  <outline>
    <contour>
      <point x="180" y="0" type="line"/>
      <point x="294" y="0" type="line"/>
      <point x="294" y="393" type="line"/>
      <point x="262" y="328" type="line"/>
      <point x="449" y="496" type="line"/>
      <point x="392" y="496" type="line"/>
      <point x="849" y="0" type="line"/>
      <point x="983" y="0" type="line"/>
      <point x="467" y="555" type="line"/>
      <point x="467" y="503" type="line"/>
      <point x="977" y="986" type="line"/>
      <point x="844" y="986" type="line"/>
      <point x="257" y="435" type="line"/>
      <point x="288" y="435" type="line"/>
      <point x="294" y="657" type="line"/>
      <point x="294" y="1392" type="line"/>
      <point x="180" y="1382" type="line"/>
    </contour>
  </outline>
</glyph>
<glyph name="l" format="1">
  <advance width="558"/>
  <unicode hex="006C"/>
  <outline>
    <contour>
      <point x="432" y="-10" type="curve" smooth="yes"/>
      <point x="496" y="-10"/>
      <point x="546" y="-3"/>
      <point x="566" y="0" type="curve"/>
      <point x="566" y="78" type="line"/>
      <point x="557" y="77"/>
      <point x="505" y="71"/>
      <point x="452" y="71" type="curve" smooth="yes"/>
      <point x="328" y="71"/>
      <point x="294" y="120"/>
      <point x="294" y="235" type="curve" smooth="yes"/>
      <point x="294" y="1392" type="line"/>
      <point x="180" y="1382" type="line"/>
      <point x="180" y="242" type="line" smooth="yes"/>
      <point x="180" y="28"/>
      <point x="310" y="-10"/>
    </contour>
  </outline>
</glyph>
<glyph name="m" format="1">
  <advance width="1670"/>
  <unicode hex="006D"/>
  <outline>
    <contour>
      <point x="180" y="0" type="line"/>
      <point x="294" y="0" type="line"/>
      <point x="294" y="653" type="line"/>
      <point x="329" y="802"/>
      <point x="439" y="918"/>
      <point x="589" y="918" type="curve" smooth="yes"/>
      <point x="743" y="918"/>
      <point x="790" y="809"/>
      <point x="790" y="545" type="curve" smooth="yes"/>
      <point x="790" y="0" type="line"/>
      <point x="904" y="0" type="line"/>
      <point x="904" y="475" type="line" smooth="yes"/>
      <point x="904" y="566"/>
      <point x="902.166" y="618.161"/>
      <point x="907" y="641" type="curve" smooth="yes"/>
      <point x="947" y="830"/>
      <point x="1076" y="918"/>
      <point x="1199" y="918" type="curve" smooth="yes"/>
      <point x="1405" y="918"/>
      <point x="1386" y="694"/>
      <point x="1386" y="561" type="curve" smooth="yes"/>
      <point x="1386" y="0" type="line"/>
      <point x="1500" y="0" type="line"/>
      <point x="1500" y="639" type="line" smooth="yes"/>
      <point x="1500" y="879"/>
      <point x="1404" y="1004"/>
      <point x="1209" y="1004" type="curve" smooth="yes"/>
      <point x="1019" y="1004"/>
      <point x="908" y="887"/>
      <point x="849" y="734" type="curve"/>
      <point x="879" y="734" type="line"/>
      <point x="849" y="865"/>
      <point x="791" y="1004"/>
      <point x="593" y="1004" type="curve" smooth="yes"/>
      <point x="437" y="1004"/>
      <point x="324" y="906"/>
      <point x="254" y="762" type="curve"/>
      <point x="293" y="751" type="line"/>
      <point x="272" y="986" type="line"/>
      <point x="180" y="986" type="line"/>
    </contour>
  </outline>
</glyph>
<glyph name="n" format="1">
  <advance width="1128"/>
  <unicode hex="006E"/>
  <outline>
    <contour>
      <point x="180" y="0" type="line"/>
      <point x="294" y="0" type="line"/>
      <point x="294" y="579" type="line" smooth="yes"/>
      <point x="294" y="745"/>
      <point x="361" y="918"/>
      <point x="621" y="918" type="curve" smooth="yes"/>
      <point x="795" y="918"/>
      <point x="845" y="806"/>
      <point x="844" y="630" type="curve"/>
      <point x="844" y="0" type="line"/>
      <point x="958" y="0" type="line"/>
      <point x="958" y="594" type="line" smooth="yes"/>
      <point x="958" y="873"/>
      <point x="858" y="1004"/>
      <point x="632" y="1004" type="curve" smooth="yes"/>
      <point x="437" y="1004"/>
      <point x="324" y="914"/>
      <point x="270" y="786" type="curve"/>
      <point x="304" y="786" type="line"/>
      <point x="285" y="986" type="line"/>
      <point x="180" y="986" type="line"/>
    </contour>
  </outline>
</glyph>
<glyph name="p" format="1">
  <advance width="1177"/>
  <unicode hex="0070"/>
  <outline>
    <contour>
      <point x="180" y="-449" type="line"/>
      <point x="294" y="-441" type="line"/>
      <point x="294" y="-81" type="line"/>
      <point x="282" y="324" type="line"/>
      <point x="249" y="294" type="line"/>
      <point x="299" y="139"/>
      <point x="421" y="-18"/>
      <point x="637" y="-18" type="curve" smooth="yes"/>
      <point x="905" y="-18"/>
      <point x="1057" y="188"/>
      <point x="1057" y="486" type="curve" smooth="yes"/>
      <point x="1057" y="800"/>
      <point x="916" y="1004"/>
      <point x="629" y="1004" type="curve" smooth="yes"/>
      <point x="442" y="1004"/>
      <point x="317" y="886"/>
      <point x="265" y="728" type="curve"/>
      <point x="287" y="723" type="line"/>
      <point x="271" y="986" type="line"/>
      <point x="180" y="986" type="line"/>
    </contour>
    <contour>
      <point x="623" y="68" type="curve" smooth="yes"/>
      <point x="415" y="68"/>
      <point x="291" y="242"/>
      <point x="291" y="505" type="curve" smooth="yes"/>
      <point x="291" y="736"/>
      <point x="389" y="918"/>
      <point x="635" y="918" type="curve" smooth="yes"/>
      <point x="867" y="918"/>
      <point x="943" y="724"/>
      <point x="943" y="488" type="curve" smooth="yes"/>
      <point x="943" y="240"/>
      <point x="851" y="68"/>
    </contour>
  </outline>
</glyph>
<glyph name="q" format="1">
  <advance width="1219"/>
  <unicode hex="0071"/>
  <outline>
    <contour>
      <point x="927" y="-449" type="line"/>
      <point x="1039" y="-443" type="line"/>
      <point x="1039" y="986" type="line"/>
      <point x="933" y="986" type="line"/>
      <point x="912" y="745" type="line"/>
      <point x="936" y="748" type="line"/>
      <point x="877" y="900"/>
      <point x="759" y="1004"/>
      <point x="566" y="1004" type="curve" smooth="yes"/>
      <point x="282" y="1004"/>
      <point x="120" y="789"/>
      <point x="120" y="481" type="curve" smooth="yes"/>
      <point x="120" y="192"/>
      <point x="300" y="-18"/>
      <point x="561" y="-18" type="curve" smooth="yes"/>
      <point x="814" y="-18"/>
      <point x="922" y="139"/>
      <point x="963" y="288" type="curve"/>
      <point x="934" y="305" type="line"/>
      <point x="927" y="-102" type="line"/>
    </contour>
    <contour>
      <point x="576" y="68" type="curve" smooth="yes"/>
      <point x="341" y="68"/>
      <point x="232" y="247"/>
      <point x="232" y="493" type="curve" smooth="yes"/>
      <point x="232" y="727"/>
      <point x="333" y="918"/>
      <point x="578" y="918" type="curve" smooth="yes"/>
      <point x="830" y="918"/>
      <point x="919" y="746"/>
      <point x="919" y="530" type="curve"/>
      <point x="922" y="253"/>
      <point x="848" y="68"/>
    </contour>
  </outline>
</glyph>
<glyph name="u" format="1">
  <advance width="1128"/>
  <unicode hex="0075"/>
  <outline>
    <contour>
      <point x="948" y="986" type="line"/>
      <point x="834" y="986" type="line"/>
      <point x="834" y="407" type="line" smooth="yes"/>
      <point x="834" y="241"/>
      <point x="767" y="68"/>
      <point x="507" y="68" type="curve" smooth="yes"/>
      <point x="333" y="68"/>
      <point x="283" y="180"/>
      <point x="284" y="356" type="curve"/>
      <point x="284" y="986" type="line"/>
      <point x="170" y="986" type="line"/>
      <point x="170" y="392" type="line" smooth="yes"/>
      <point x="170" y="113"/>
      <point x="270" y="-18"/>
      <point x="496" y="-18" type="curve" smooth="yes"/>
      <point x="691" y="-18"/>
      <point x="804" y="59"/>
      <point x="868" y="230" type="curve"/>
      <point x="834" y="230" type="line"/>
      <point x="853" y="0" type="line"/>
      <point x="948" y="0" type="line"/>
    </contour>
  </outline>
</glyph>
<glyph name="v" format="1">
  <advance width="999"/>
  <unicode hex="0076"/>
  <outline>
    <contour>
      <point x="440" y="0" type="line"/>
      <point x="561" y="0" type="line"/>
      <point x="937" y="986" type="line"/>
      <point x="824" y="986" type="line"/>
      <point x="613" y="409" type="line"/>
      <point x="481" y="50" type="line"/>
      <point x="519" y="50" type="line"/>
      <point x="388" y="406" type="line"/>
      <point x="175" y="986" type="line"/>
      <point x="62" y="986" type="line"/>
    </contour>
  </outline>
</glyph>
<glyph name="w" format="1">
  <advance width="1449"/>
  <unicode hex="0077"/>
  <outline>
    <contour>
      <point x="339" y="0" type="line"/>
      <point x="449" y="0" type="line"/>
      <point x="740" y="949" type="line"/>
      <point x="715" y="949" type="line"/>
      <point x="1036" y="0" type="line"/>
      <point x="1129" y="0" type="line"/>
      <point x="1383" y="986" type="line"/>
      <point x="1283" y="986" type="line"/>
      <point x="1066" y="61" type="line"/>
      <point x="1099" y="61" type="line"/>
      <point x="791" y="986" type="line"/>
      <point x="661" y="986" type="line"/>
      <point x="377" y="61" type="line"/>
      <point x="408" y="61" type="line"/>
      <point x="170" y="986" type="line"/>
      <point x="66" y="986" type="line"/>
    </contour>
  </outline>
</glyph>
<glyph name="x" format="1">
  <advance width="989"/>
  <unicode hex="0078"/>
  <outline>
    <contour>
      <point x="44" y="0" type="line"/>
      <point x="170" y="0" type="line"/>
      <point x="507" y="440" type="line"/>
      <point x="547" y="467" type="line"/>
      <point x="928" y="986" type="line"/>
      <point x="802" y="986" type="line"/>
      <point x="481" y="539" type="line"/>
      <point x="446" y="522" type="line"/>
    </contour>
    <contour>
      <point x="803" y="0" type="line"/>
      <point x="927" y="0" type="line"/>
      <point x="199" y="986" type="line"/>
      <point x="73" y="986" type="line"/>
    </contour>
  </outline>
</glyph>
<glyph name="y" format="1">
  <advance width="1005"/>
  <unicode hex="0079"/>
  <outline>
    <contour>
      <point x="425" y="-374" type="line"/>
      <point x="955" y="986" type="line"/>
      <point x="843" y="986" type="line"/>
      <point x="512" y="110" type="line"/>
      <point x="545" y="110" type="line"/>
      <point x="191" y="986" type="line"/>
      <point x="76" y="986" type="line"/>
      <point x="498" y="-30" type="line"/>
      <point x="498" y="75" type="line"/>
      <point x="333" y="-344" type="line"/>
    </contour>
  </outline>
</glyph>
<glyph name="z" format="1">
  <advance width="858"/>
  <unicode hex="007A"/>
  <outline>
    <contour>
      <point x="114" y="0" type="line"/>
      <point x="752" y="0" type="line"/>
      <point x="752" y="78" type="line"/>
      <point x="166" y="78" type="line"/>
      <point x="189" y="27" type="line"/>
      <point x="747" y="908" type="line"/>
      <point x="747" y="986" type="line"/>
      <point x="134" y="986" type="line"/>
      <point x="134" y="908" type="line"/>
      <point x="691" y="908" type="line"/>
      <point x="670" y="955" type="line"/>
      <point x="114" y="77" type="line"/>
    </contour>
  </outline>
</glyph>
<glyph name="braceleft" format="1">
  <advance width="752"/>
  <unicode hex="007B"/>
  <outline>
    <contour>
      <point x="584.0" y="-263.0" type="line"/>
      <point x="379.0" y="-263.0"/>
      <point x="316.0" y="-130.0"/>
      <point x="316.0" y="72.0" type="curve" smooth="yes"/>
      <point x="316.0" y="217.0" type="line" smooth="yes"/>
      <point x="316.0" y="388.0"/>
      <point x="304.0" y="529.0"/>
      <point x="117.0" y="532.0" type="curve"/>
      <point x="117.0" y="610.0" type="line"/>
      <point x="298.0" y="610.0"/>
      <point x="316.0" y="757.0"/>
      <point x="316.0" y="924.0" type="curve" smooth="yes"/>
      <point x="316.0" y="1121.0" type="line" smooth="yes"/>
      <point x="316.0" y="1292.0"/>
      <point x="406.0" y="1410.0"/>
      <point x="584.0" y="1411.0" type="curve"/>
      <point x="584.0" y="1333.0" type="line"/>
      <point x="448.0" y="1331.0"/>
      <point x="395.0" y="1266.0"/>
      <point x="395.0" y="1086.0" type="curve" smooth="yes"/>
      <point x="395.0" y="844.0" type="line" smooth="yes"/>
      <point x="395" y="694"/>
      <point x="355" y="614"/>
      <point x="227.0" y="566.0" type="curve"/>
      <point x="357.0" y="530.0"/>
      <point x="395" y="458"/>
      <point x="395.0" y="302.0" type="curve"/>
      <point x="395.0" y="61.0" type="line" smooth="yes"/>
      <point x="395.0" y="-112.0"/>
      <point x="445.0" y="-186.0"/>
      <point x="584.0" y="-188.0" type="curve"/>
    </contour>
  </outline>
</glyph>
<glyph name="braceright" format="1">
  <advance width="752"/>
  <unicode hex="007D"/>
  <outline>
    <contour>
      <point x="117" y="-263" type="curve"/>
      <point x="117" y="-185" type="line"/>
      <point x="253" y="-183"/>
      <point x="306" y="-118"/>
      <point x="306" y="62" type="curve" smooth="yes"/>
      <point x="306" y="304" type="line" smooth="yes"/>
      <point x="306" y="416"/>
      <point x="336" y="517"/>
      <point x="474" y="582" type="curve"/>
      <point x="344" y="618"/>
      <point x="306" y="746"/>
      <point x="306" y="846" type="curve" smooth="yes"/>
      <point x="306" y="1087" type="line" smooth="yes"/>
      <point x="306" y="1260"/>
      <point x="256" y="1334"/>
      <point x="117" y="1336" type="curve"/>
      <point x="117" y="1411" type="line"/>
      <point x="322" y="1411"/>
      <point x="385" y="1278"/>
      <point x="385" y="1076" type="curve" smooth="yes"/>
      <point x="385" y="931" type="line" smooth="yes"/>
      <point x="385" y="760"/>
      <point x="397" y="619"/>
      <point x="584" y="616" type="curve"/>
      <point x="584" y="538" type="line"/>
      <point x="403" y="538"/>
      <point x="385" y="391"/>
      <point x="385" y="224" type="curve" smooth="yes"/>
      <point x="385" y="27" type="line" smooth="yes"/>
      <point x="385" y="-144"/>
      <point x="295" y="-262"/>
    </contour>
  </outline>
</glyph>
<glyph name="cent" format="1">
  <advance width="937"/>
  <unicode hex="00A2"/>
  <outline>
    <contour>
      <point x="516" y="-146" type="line"/>
      <point x="590" y="-146" type="line"/>
      <point x="590" y="1156" type="line"/>
      <point x="516" y="1156" type="line"/>
    </contour>
    <component base="c"/>
  </outline>
</glyph>
<glyph name="yen" format="1">
  <advance width="1146"/>
  <unicode hex="00A5"/>
  <outline>
    <contour>
      <point x="534" y="0" type="line"/>
      <point x="648" y="0" type="line"/>
      <point x="648" y="292" type="line"/>
      <point x="942" y="292" type="line"/>
      <point x="942" y="361" type="line"/>
      <point x="648" y="361" type="line"/>
      <point x="648" y="567" type="line"/>
      <point x="940" y="567" type="line"/>
      <point x="940" y="640" type="line"/>
      <point x="686.403" y="640" type="line"/>
      <point x="1084" y="1354" type="line"/>
      <point x="978" y="1354" type="line"/>
      <point x="590.501" y="643.428" type="line"/>
      <point x="167" y="1354" type="line"/>
      <point x="62" y="1354" type="line"/>
      <point x="490.899" y="640" type="line"/>
      <point x="228" y="640" type="line"/>
      <point x="228" y="567" type="line"/>
      <point x="534" y="567" type="line"/>
      <point x="534" y="361" type="line"/>
      <point x="226" y="361" type="line"/>
      <point x="226" y="292" type="line"/>
      <point x="534" y="292" type="line"/>
    </contour>
  </outline>
</glyph>
<glyph name="brokenbar" format="1">
  <advance width="159"/>
  <unicode hex="00A6"/>
  <outline>
    <contour>
      <point x="35" y="-154" type="line"/>
      <point x="35" y="476" type="line"/>
      <point x="116" y="476" type="line"/>
      <point x="116" y="-154" type="line"/>
    </contour>
    <contour>
      <point x="35" y="727" type="line"/>
      <point x="35" y="1354" type="line"/>
      <point x="116" y="1354" type="line"/>
      <point x="116" y="727" type="line"/>
    </contour>
  </outline>
</glyph>
<glyph name="section" format="1">
  <advance width="927"/>
  <unicode hex="00A7"/>
  <outline>
    <contour>
      <point x="798" y="253" type="curve" smooth="yes"/>
      <point x="798" y="64"/>
      <point x="628" y="-17"/>
      <point x="439" y="-17" type="curve" smooth="yes"/>
      <point x="340" y="-17"/>
      <point x="236" y="5"/>
      <point x="149" y="45" type="curve"/>
      <point x="180" y="126" type="line"/>
      <point x="254" y="87"/>
      <point x="353" y="63"/>
      <point x="444" y="63" type="curve" smooth="yes"/>
      <point x="582" y="63"/>
      <point x="703" y="118"/>
      <point x="703" y="260" type="curve" smooth="yes"/>
      <point x="703" y="364"/>
      <point x="635" y="406"/>
      <point x="450" y="470" type="curve" smooth="yes"/>
      <point x="262" y="535"/>
      <point x="143" y="590"/>
      <point x="143" y="740" type="curve" smooth="yes"/>
      <point x="143" y="848"/>
      <point x="208" y="921"/>
      <point x="297" y="967" type="curve"/>
      <point x="201" y="1021"/>
      <point x="153" y="1083"/>
      <point x="153" y="1191" type="curve" smooth="yes"/>
      <point x="153" y="1367"/>
      <point x="319" y="1444"/>
      <point x="503" y="1444" type="curve" smooth="yes"/>
      <point x="593" y="1444"/>
      <point x="688" y="1425"/>
      <point x="769" y="1390" type="curve"/>
      <point x="740" y="1313" type="line"/>
      <point x="675" y="1344"/>
      <point x="588" y="1363"/>
      <point x="505" y="1363" type="curve" smooth="yes"/>
      <point x="373" y="1363"/>
      <point x="252" y="1316"/>
      <point x="252" y="1198" type="curve" smooth="yes"/>
      <point x="252" y="1064"/>
      <point x="352" y="1036"/>
      <point x="527" y="966" type="curve" smooth="yes"/>
      <point x="723" y="888"/>
      <point x="806" y="845"/>
      <point x="806" y="697" type="curve" smooth="yes"/>
      <point x="806" y="589"/>
      <point x="767" y="518"/>
      <point x="662" y="474" type="curve"/>
      <point x="747" y="426"/>
      <point x="798" y="355"/>
    </contour>
    <contour>
      <point x="587" y="511" type="line"/>
      <point x="647" y="543"/>
      <point x="709" y="575"/>
      <point x="709" y="708" type="curve" smooth="yes"/>
      <point x="709" y="802"/>
      <point x="619" y="840"/>
      <point x="492" y="890" type="curve" smooth="yes"/>
      <point x="368" y="937" type="line"/>
      <point x="307" y="915"/>
      <point x="240" y="843"/>
      <point x="240" y="745" type="curve" smooth="yes"/>
      <point x="240" y="638"/>
      <point x="327" y="615"/>
      <point x="477" y="555" type="curve" smooth="yes"/>
    </contour>
  </outline>
</glyph>
<glyph name="dieresis" format="1">
  <advance width="716"/>
  <unicode hex="00A8"/>
  <outline>
    <contour>
      <point x="140" y="1184" type="line"/>
      <point x="241" y="1184" type="line"/>
      <point x="241" y="1314" type="line"/>
      <point x="140" y="1314" type="line"/>
    </contour>
    <contour>
      <point x="479" y="1184" type="line"/>
      <point x="581" y="1184" type="line"/>
      <point x="581" y="1314" type="line"/>
      <point x="479" y="1314" type="line"/>
    </contour>
  </outline>
</glyph>
<glyph name="copyright" format="1">
  <advance width="1776"/>
  <unicode hex="00A9"/>
  <outline>
    <contour>
      <point x="918" y="214" type="curve" smooth="yes"/>
      <point x="1008" y="214"/>
      <point x="1100" y="240"/>
      <point x="1188" y="296" type="curve"/>
      <point x="1162" y="366" type="line"/>
      <point x="1072" y="311"/>
      <point x="997" y="294"/>
      <point x="917" y="294" type="curve" smooth="yes"/>
      <point x="714" y="294"/>
      <point x="544" y="450"/>
      <point x="544" y="713" type="curve" smooth="yes"/>
      <point x="544" y="946"/>
      <point x="714" y="1113"/>
      <point x="908" y="1113" type="curve" smooth="yes"/>
      <point x="979" y="1113"/>
      <point x="1075" y="1088"/>
      <point x="1148" y="1028" type="curve"/>
      <point x="1184" y="1103" type="line"/>
      <point x="1094" y="1166"/>
      <point x="999" y="1194"/>
      <point x="907" y="1194" type="curve" smooth="yes"/>
      <point x="659" y="1194"/>
      <point x="440" y="988"/>
      <point x="440" y="706" type="curve" smooth="yes"/>
      <point x="440" y="418"/>
      <point x="665" y="214"/>
    </contour>
    <contour>
      <point x="886" y="34" type="curve" smooth="yes"/>
      <point x="569" y="34"/>
      <point x="234" y="244"/>
      <point x="234" y="707" type="curve" smooth="yes"/>
      <point x="234" y="1170"/>
      <point x="569" y="1380"/>
      <point x="886" y="1380" type="curve" smooth="yes"/>
      <point x="1203" y="1380"/>
      <point x="1542" y="1169"/>
      <point x="1542" y="707" type="curve" smooth="yes"/>
      <point x="1542" y="245"/>
      <point x="1203" y="34"/>
    </contour>
    <contour>
      <point x="886" y="-37" type="curve" smooth="yes"/>
      <point x="1247" y="-37"/>
      <point x="1634" y="197"/>
      <point x="1634" y="707" type="curve" smooth="yes"/>
      <point x="1634" y="1217"/>
      <point x="1247" y="1452"/>
      <point x="886" y="1452" type="curve" smooth="yes"/>
      <point x="525" y="1452"/>
      <point x="142" y="1217"/>
      <point x="142" y="707" type="curve" smooth="yes"/>
      <point x="142" y="197"/>
      <point x="525" y="-37"/>
    </contour>
  </outline>
</glyph>
<glyph name="ordfeminine" format="1">
  <advance width="817"/>
  <unicode hex="00AA"/>
  <outline>
    <contour>
      <point x="173" y="460" type="line"/>
      <point x="173" y="536" type="line"/>
      <point x="652" y="536" type="line"/>
      <point x="652" y="460" type="line"/>
    </contour>
    <contour>
      <point x="348" y="683" type="curve" smooth="yes"/>
      <point x="431" y="683"/>
      <point x="540" y="704"/>
      <point x="624" y="829" type="curve"/>
      <point x="595" y="829" type="line"/>
      <point x="617" y="694" type="line"/>
      <point x="672" y="694" type="line"/>
      <point x="672" y="1142" type="line" smooth="yes"/>
      <point x="672" y="1321"/>
      <point x="565" y="1381"/>
      <point x="412" y="1381" type="curve" smooth="yes"/>
      <point x="335" y="1381"/>
      <point x="236" y="1356"/>
      <point x="182" y="1325" type="curve"/>
      <point x="207" y="1255" type="line"/>
      <point x="268" y="1289"/>
      <point x="345" y="1310"/>
      <point x="414" y="1310" type="curve" smooth="yes"/>
      <point x="531" y="1310"/>
      <point x="590" y="1260"/>
      <point x="590" y="1156" type="curve" smooth="yes"/>
      <point x="590" y="1065" type="line"/>
      <point x="616" y="1088" type="line"/>
      <point x="465" y="1088" type="line" smooth="yes"/>
      <point x="232" y="1088"/>
      <point x="138" y="1011"/>
      <point x="138" y="868" type="curve" smooth="yes"/>
      <point x="138" y="748"/>
      <point x="225" y="683"/>
    </contour>
    <contour>
      <point x="358" y="752" type="curve" smooth="yes"/>
      <point x="276" y="752"/>
      <point x="220" y="789"/>
      <point x="220" y="869" type="curve" smooth="yes"/>
      <point x="220" y="975"/>
      <point x="288" y="1029"/>
      <point x="509" y="1029" type="curve" smooth="yes"/>
      <point x="616" y="1029" type="line"/>
      <point x="590" y="1057" type="line"/>
      <point x="590" y="844" type="line"/>
      <point x="616" y="918" type="line"/>
      <point x="546" y="785"/>
      <point x="439" y="752"/>
    </contour>
  </outline>
</glyph>
<glyph name="guillemotleft" format="1">
  <advance width="936"/>
  <unicode hex="00AB"/>
  <outline>
    <contour>
      <point x="682" y="147" type="curve"/>
      <point x="755" y="165" type="line"/>
      <point x="515" y="506" type="line"/>
      <point x="762" y="841" type="line"/>
      <point x="685" y="860" type="line"/>
      <point x="425" y="503" type="line"/>
      <point x="425" y="503"/>
      <point x="682" y="147"/>
    </contour>
    <contour>
      <point x="376" y="147" type="curve"/>
      <point x="449" y="165" type="line"/>
      <point x="209" y="506" type="line"/>
      <point x="456" y="841" type="line"/>
      <point x="379" y="860" type="line"/>
      <point x="119" y="503" type="line"/>
      <point x="119" y="503"/>
      <point x="376" y="147"/>
    </contour>
  </outline>
</glyph>
<glyph name="logicalnot" format="1">
  <advance width="1127"/>
  <unicode hex="00AC"/>
  <outline>
    <contour>
      <point x="908" y="242" type="line"/>
      <point x="991" y="242" type="line"/>
      <point x="991" y="732" type="line"/>
      <point x="101" y="732" type="line"/>
      <point x="101" y="646" type="line"/>
      <point x="908" y="646" type="line"/>
    </contour>
  </outline>
</glyph>
<glyph name="registered" format="1">
  <advance width="1776"/>
  <unicode hex="00AE"/>
  <outline>
    <contour>
      <point x="600" y="289" type="line"/>
      <point x="691" y="289" type="line"/>
      <point x="691" y="725" type="line"/>
      <point x="937" y="725" type="line"/>
      <point x="1146" y="289" type="line"/>
      <point x="1245" y="289" type="line"/>
      <point x="1029" y="737" type="line"/>
      <point x="1152" y="742"/>
      <point x="1217" y="832"/>
      <point x="1217" y="964" type="curve" smooth="yes"/>
      <point x="1217" y="1115"/>
      <point x="1159" y="1190"/>
      <point x="916" y="1190" type="curve" smooth="yes"/>
      <point x="600" y="1190" type="line"/>
    </contour>
    <contour>
      <point x="692" y="804" type="line"/>
      <point x="692" y="1111" type="line"/>
      <point x="909" y="1111" type="line" smooth="yes"/>
      <point x="1074" y="1111"/>
      <point x="1132" y="1087"/>
      <point x="1132" y="959" type="curve" smooth="yes"/>
      <point x="1132" y="857"/>
      <point x="1100" y="804"/>
      <point x="957" y="804" type="curve" smooth="yes"/>
    </contour>
    <contour>
      <point x="886" y="34" type="curve" smooth="yes"/>
      <point x="569" y="34"/>
      <point x="234" y="244"/>
      <point x="234" y="707" type="curve" smooth="yes"/>
      <point x="234" y="1170"/>
      <point x="569" y="1380"/>
      <point x="886" y="1380" type="curve" smooth="yes"/>
      <point x="1203" y="1380"/>
      <point x="1542" y="1169"/>
      <point x="1542" y="707" type="curve" smooth="yes"/>
      <point x="1542" y="245"/>
      <point x="1203" y="34"/>
    </contour>
    <contour>
      <point x="886" y="-37" type="curve" smooth="yes"/>
      <point x="1247" y="-37"/>
      <point x="1634" y="197"/>
      <point x="1634" y="707" type="curve" smooth="yes"/>
      <point x="1634" y="1217"/>
      <point x="1247" y="1452"/>
      <point x="886" y="1452" type="curve" smooth="yes"/>
      <point x="525" y="1452"/>
      <point x="142" y="1217"/>
      <point x="142" y="707" type="curve" smooth="yes"/>
      <point x="142" y="197"/>
      <point x="525" y="-37"/>
    </contour>
  </outline>
</glyph>
<glyph name="macron" format="1">
  <advance width="1090"/>
  <unicode hex="00AF"/>
  <outline>
    <contour>
      <point x="275" y="1196" type="line"/>
      <point x="783" y="1196" type="line"/>
      <point x="783" y="1289" type="line"/>
      <point x="275" y="1289" type="line"/>
    </contour>
  </outline>
</glyph>
<glyph name="degree" format="1">
  <advance width="781.0"/>
  <unicode hex="00B0"/>
  <outline>
    <contour>
      <point x="390.0" y="926.0" type="curve" smooth="yes"/>
      <point x="278.0" y="926.0"/>
      <point x="192.0" y="1008"/>
      <point x="192.0" y="1123.0" type="curve" smooth="yes"/>
      <point x="192.0" y="1238"/>
      <point x="280.0" y="1321.0"/>
      <point x="390.0" y="1321.0" type="curve" smooth="yes"/>
      <point x="503.0" y="1321.0"/>
      <point x="590.0" y="1238"/>
      <point x="590.0" y="1123.0" type="curve" smooth="yes"/>
      <point x="590.0" y="1010"/>
      <point x="503.0" y="926.0"/>
    </contour>
    <contour>
      <point x="389.0" y="856.0" type="curve" smooth="yes"/>
      <point x="529.0" y="856.0"/>
      <point x="669.0" y="964.0"/>
      <point x="669.0" y="1123.0" type="curve" smooth="yes"/>
      <point x="669.0" y="1287.0"/>
      <point x="526.0" y="1391.0"/>
      <point x="389.0" y="1391.0" type="curve" smooth="yes"/>
      <point x="256.0" y="1391.0"/>
      <point x="112.0" y="1287.0"/>
      <point x="112.0" y="1123.0" type="curve" smooth="yes"/>
      <point x="112.0" y="956.0"/>
      <point x="258.0" y="856.0"/>
    </contour>
  </outline>
</glyph>
<glyph name="plusminus" format="1">
  <advance width="1089"/>
  <unicode hex="00B1"/>
  <outline>
    <contour>
      <point x="106" y="0" type="line"/>
      <point x="106" y="79" type="line"/>
      <point x="983" y="79" type="line"/>
      <point x="983" y="0" type="line"/>
    </contour>
    <contour>
      <point x="490" y="175" type="line"/>
      <point x="576" y="175" type="line"/>
      <point x="576" y="552" type="line"/>
      <point x="922" y="552" type="line"/>
      <point x="922" y="623" type="line"/>
      <point x="576" y="623" type="line"/>
      <point x="576" y="992" type="line"/>
      <point x="490" y="992" type="line"/>
      <point x="490" y="623" type="line"/>
      <point x="135" y="623" type="line"/>
      <point x="135" y="552" type="line"/>
      <point x="490" y="552" type="line"/>
    </contour>
  </outline>
</glyph>
<glyph name="uni00B3" format="1">
  <advance width="787"/>
  <unicode hex="00B3"/>
  <outline>
    <contour>
      <point x="415" y="585" type="curve" smooth="yes"/>
      <point x="339" y="585"/>
      <point x="217" y="607"/>
      <point x="165" y="669" type="curve"/>
      <point x="207" y="746" type="line"/>
      <point x="256.642" y="702.253"/>
      <point x="344.092" y="676.16"/>
      <point x="402.736" y="676.16" type="curve" smooth="yes"/>
      <point x="476.551" y="676.16"/>
      <point x="541" y="722.498"/>
      <point x="541" y="822" type="curve" smooth="yes"/>
      <point x="541" y="918"/>
      <point x="453" y="967"/>
      <point x="347" y="967" type="curve" smooth="yes"/>
      <point x="282" y="967" type="line"/>
      <point x="282" y="1060" type="line"/>
      <point x="343" y="1060" type="line" smooth="yes"/>
      <point x="435" y="1060"/>
      <point x="525" y="1100"/>
      <point x="525" y="1188" type="curve" smooth="yes"/>
      <point x="525" y="1275.97"/>
      <point x="468.165" y="1314.18"/>
      <point x="402.236" y="1314.18" type="curve" smooth="yes"/>
      <point x="339.245" y="1314.18"/>
      <point x="246.954" y="1283.86"/>
      <point x="209" y="1242" type="curve"/>
      <point x="165" y="1312" type="line"/>
      <point x="214" y="1370"/>
      <point x="327" y="1403"/>
      <point x="404" y="1403" type="curve" smooth="yes"/>
      <point x="517" y="1403"/>
      <point x="627" y="1330"/>
      <point x="627" y="1188" type="curve" smooth="yes"/>
      <point x="627" y="1112"/>
      <point x="581" y="1035"/>
      <point x="474" y="1018" type="curve"/>
      <point x="590" y="990"/>
      <point x="645" y="913"/>
      <point x="645" y="818" type="curve" smooth="yes"/>
      <point x="645" y="677"/>
      <point x="547" y="585"/>
    </contour>
  </outline>
</glyph>
<glyph name="acute" format="1">
  <advance width="611"/>
  <unicode hex="00B4"/>
  <outline>
    <contour>
      <point x="81" y="1176" type="line"/>
      <point x="145" y="1176" type="line"/>
      <point x="410" y="1523" type="line"/>
      <point x="258" y="1523" type="line"/>
    </contour>
  </outline>
</glyph>
<glyph name="paragraph" format="1">
  <advance width="1035"/>
  <unicode hex="00B6"/>
  <outline>
    <contour>
      <point x="489" y="-151" type="line"/>
      <point x="571" y="-151" type="line"/>
      <point x="571" y="1385" type="line"/>
      <point x="776" y="1385" type="line"/>
      <point x="776" y="-151" type="line"/>
      <point x="858" y="-151" type="line"/>
      <point x="858" y="1385" type="line"/>
      <point x="925" y="1385" type="line"/>
      <point x="925" y="1461" type="line"/>
      <point x="467" y="1461" type="line" smooth="yes"/>
      <point x="150" y="1461"/>
      <point x="111" y="1254"/>
      <point x="111" y="1147" type="curve" smooth="yes"/>
      <point x="111" y="992"/>
      <point x="191" y="814"/>
      <point x="489" y="814" type="curve"/>
    </contour>
  </outline>
</glyph>
<glyph name="cedilla" format="1">
  <advance width="563"/>
  <unicode hex="00B8"/>
  <outline>
    <contour>
      <point x="148" y="-352" type="line"/>
      <point x="236" y="-352" type="line"/>
      <point x="265" y="4" type="line"/>
      <point x="216" y="4" type="line"/>
    </contour>
  </outline>
</glyph>
<glyph name="ordmasculine" format="1">
  <advance width="789"/>
  <unicode hex="00BA"/>
  <outline>
    <contour>
      <point x="249" y="817"/>
      <point x="177" y="948"/>
      <point x="177" y="1098" type="curve" smooth="yes"/>
      <point x="177" y="1250"/>
      <point x="250" y="1381"/>
      <point x="394" y="1381" type="curve" smooth="yes"/>
      <point x="543" y="1381"/>
      <point x="620" y="1248"/>
      <point x="620" y="1095" type="curve" smooth="yes"/>
      <point x="620" y="946"/>
      <point x="546" y="817"/>
      <point x="394" y="817" type="curve" smooth="yes"/>
    </contour>
    <contour>
      <point x="577" y="751"/>
      <point x="705" y="902"/>
      <point x="705" y="1097" type="curve" smooth="yes"/>
      <point x="705" y="1302"/>
      <point x="594" y="1448"/>
      <point x="394" y="1448" type="curve" smooth="yes"/>
      <point x="200" y="1448"/>
      <point x="84" y="1299"/>
      <point x="84" y="1097" type="curve" smooth="yes"/>
      <point x="84" y="899"/>
      <point x="200" y="751"/>
      <point x="394" y="751" type="curve" smooth="yes"/>
    </contour>
  </outline>
</glyph>
<glyph name="guillemotright" format="1">
  <advance width="911"/>
  <unicode hex="00BB"/>
  <outline>
    <contour>
      <point x="533" y="860" type="curve"/>
      <point x="460" y="842" type="line"/>
      <point x="700" y="501" type="line"/>
      <point x="453" y="166" type="line"/>
      <point x="530" y="147" type="line"/>
      <point x="790" y="504" type="line"/>
      <point x="790" y="504"/>
      <point x="533" y="860"/>
    </contour>
    <contour>
      <point x="227" y="860" type="curve"/>
      <point x="154" y="842" type="line"/>
      <point x="394" y="501" type="line"/>
      <point x="147" y="166" type="line"/>
      <point x="224" y="147" type="line"/>
      <point x="484" y="504" type="line"/>
      <point x="484" y="504"/>
      <point x="227" y="860"/>
    </contour>
  </outline>
</glyph>
<glyph name="onequarter" format="1">
  <advance width="1506"/>
  <unicode hex="00BC"/>
  <outline>
    <contour>
      <point x="1254" y="636" type="line"/>
      <point x="1016" y="263" type="line"/>
      <point x="1254" y="263" type="line"/>
    </contour>
    <contour>
      <point x="342" y="0" type="line"/>
      <point x="1170" y="1408" type="line"/>
      <point x="1262" y="1408" type="line"/>
      <point x="435" y="0" type="line"/>
    </contour>
    <contour>
      <point x="1245" y="783" type="line"/>
      <point x="1354" y="783" type="line"/>
      <point x="1354" y="263" type="line"/>
      <point x="1463" y="263" type="line"/>
      <point x="1472" y="183" type="line"/>
      <point x="1352" y="183" type="line"/>
      <point x="1352" y="1" type="line"/>
      <point x="1254" y="1" type="line"/>
      <point x="1254" y="183" type="line"/>
      <point x="900" y="183" type="line"/>
      <point x="900" y="245" type="line"/>
    </contour>
    <contour>
      <point x="87" y="673" type="line"/>
      <point x="240" y="673" type="line"/>
      <point x="240" y="1292" type="line"/>
      <point x="205" y="1269"/>
      <point x="127" y="1240"/>
      <point x="81" y="1224" type="curve"/>
      <point x="81" y="1307" type="line"/>
      <point x="129" y="1324"/>
      <point x="221" y="1364"/>
      <point x="257" y="1400" type="curve"/>
      <point x="345" y="1400" type="line"/>
      <point x="345" y="673" type="line"/>
      <point x="478" y="673" type="line"/>
      <point x="478" y="592" type="line"/>
      <point x="87" y="592" type="line"/>
    </contour>
  </outline>
</glyph>
<glyph name="onehalf" format="1">
  <advance width="1559"/>
  <unicode hex="00BD"/>
  <outline>
    <contour>
      <point x="302" y="0" type="line"/>
      <point x="1130" y="1408" type="line"/>
      <point x="1222" y="1408" type="line"/>
      <point x="395" y="0" type="line"/>
    </contour>
    <contour>
      <point x="1433" y="-1" type="line"/>
      <point x="952" y="-1" type="line"/>
      <point x="952" y="83" type="line"/>
      <point x="1176" y="308"/>
      <point x="1339" y="450"/>
      <point x="1339" y="564" type="curve" smooth="yes"/>
      <point x="1339" y="663.481"/>
      <point x="1275.26" y="706.128"/>
      <point x="1202.84" y="706.128" type="curve" smooth="yes"/>
      <point x="1125.34" y="706.128"/>
      <point x="1051.9" y="672.291"/>
      <point x="992" y="592" type="curve"/>
      <point x="926" y="647" type="line"/>
      <point x="973.976" y="736.702"/>
      <point x="1086" y="797.804"/>
      <point x="1192.03" y="797.804" type="curve" smooth="yes"/>
      <point x="1319.46" y="797.804"/>
      <point x="1444" y="721.09"/>
      <point x="1444" y="572" type="curve" smooth="yes"/>
      <point x="1444" y="395"/>
      <point x="1284" y="270"/>
      <point x="1086" y="89" type="curve"/>
      <point x="1433" y="89" type="line"/>
    </contour>
    <contour>
      <point x="133" y="679" type="line"/>
      <point x="240" y="679" type="line"/>
      <point x="240" y="1282" type="line"/>
      <point x="205" y="1259"/>
      <point x="161" y="1235"/>
      <point x="121" y="1214" type="curve"/>
      <point x="121" y="1307" type="line"/>
      <point x="177" y="1335"/>
      <point x="221" y="1364"/>
      <point x="257" y="1400" type="curve"/>
      <point x="345" y="1400" type="line"/>
      <point x="345" y="679" type="line"/>
      <point x="458" y="679" type="line"/>
      <point x="458" y="592" type="line"/>
      <point x="133" y="592" type="line"/>
    </contour>
  </outline>
</glyph>
<glyph name="threequarters" format="1">
  <advance width="1564"/>
  <unicode hex="00BE"/>
  <outline>
    <contour>
      <point x="347" y="585" type="curve" smooth="yes"/>
      <point x="479" y="585"/>
      <point x="577" y="677"/>
      <point x="577" y="818" type="curve" smooth="yes"/>
      <point x="577" y="913"/>
      <point x="522" y="990"/>
      <point x="406" y="1018" type="curve"/>
      <point x="513" y="1035"/>
      <point x="559" y="1112"/>
      <point x="559" y="1188" type="curve" smooth="yes"/>
      <point x="559" y="1330"/>
      <point x="449" y="1403"/>
      <point x="336" y="1403" type="curve" smooth="yes"/>
      <point x="259" y="1403"/>
      <point x="146" y="1370"/>
      <point x="97" y="1312" type="curve"/>
      <point x="141" y="1242" type="line"/>
      <point x="178.954" y="1283.86"/>
      <point x="271.245" y="1314.18"/>
      <point x="334.236" y="1314.18" type="curve" smooth="yes"/>
      <point x="400.165" y="1314.18"/>
      <point x="457" y="1275.97"/>
      <point x="457" y="1188" type="curve" smooth="yes"/>
      <point x="457" y="1100"/>
      <point x="367" y="1060"/>
      <point x="275" y="1060" type="curve" smooth="yes"/>
      <point x="214" y="1060" type="line"/>
      <point x="214" y="967" type="line"/>
      <point x="279" y="967" type="line" smooth="yes"/>
      <point x="385" y="967"/>
      <point x="473" y="918"/>
      <point x="473" y="822" type="curve" smooth="yes"/>
      <point x="473" y="722.498"/>
      <point x="408.551" y="676.16"/>
      <point x="334.736" y="676.16" type="curve" smooth="yes"/>
      <point x="276.092" y="676.16"/>
      <point x="188.642" y="702.253"/>
      <point x="139" y="746" type="curve"/>
      <point x="97" y="669" type="line"/>
      <point x="149" y="607"/>
      <point x="271" y="585"/>
    </contour>
    <contour>
      <point x="1254" y="1" type="line"/>
      <point x="1352" y="1" type="line"/>
      <point x="1352" y="183" type="line"/>
      <point x="1472" y="183" type="line"/>
      <point x="1463" y="263" type="line"/>
      <point x="1354" y="263" type="line"/>
      <point x="1354" y="783" type="line"/>
      <point x="1245" y="783" type="line"/>
      <point x="900" y="245" type="line"/>
      <point x="900" y="183" type="line"/>
      <point x="1254" y="183" type="line"/>
    </contour>
    <contour>
      <point x="382" y="0" type="line"/>
      <point x="475" y="0" type="line"/>
      <point x="1302" y="1408" type="line"/>
      <point x="1210" y="1408" type="line"/>
    </contour>
    <contour>
      <point x="1016" y="263" type="line"/>
      <point x="1254" y="636" type="line"/>
      <point x="1254" y="263" type="line"/>
    </contour>
  </outline>
</glyph>
<glyph name="Eth" format="1">
  <advance width="1450"/>
  <unicode hex="00D0"/>
  <outline>
    <contour>
      <point x="613" y="739" type="line"/>
      <point x="77" y="739" type="line"/>
      <point x="77" y="659" type="line"/>
      <point x="613" y="659" type="line"/>
    </contour>
    <component base="D"/>
  </outline>
</glyph>
<glyph name="multiply" format="1">
  <advance width="688"/>
  <unicode hex="00D7"/>
  <outline>
    <contour>
      <point x="595" y="216" type="line"/>
      <point x="646" y="270" type="line"/>
      <point x="401" y="538" type="line"/>
      <point x="642" y="793" type="line"/>
      <point x="583" y="850" type="line"/>
      <point x="348" y="596" type="line"/>
      <point x="110" y="856" type="line"/>
      <point x="54" y="798" type="line"/>
      <point x="295" y="539" type="line"/>
      <point x="42" y="267" type="line"/>
      <point x="97" y="215" type="line"/>
      <point x="348" y="481" type="line"/>
    </contour>
  </outline>
</glyph>
<glyph name="germandbls" format="1">
  <advance width="1103"/>
  <unicode hex="00DF"/>
  <outline>
    <contour>
      <point x="294" y="0" type="line"/>
      <point x="180" y="0" type="line"/>
      <point x="180" y="952" type="line" smooth="yes"/>
      <point x="180" y="1222"/>
      <point x="279" y="1388"/>
      <point x="559" y="1388" type="curve" smooth="yes"/>
      <point x="767" y="1388"/>
      <point x="878" y="1263"/>
      <point x="878" y="1106" type="curve" smooth="yes"/>
      <point x="878" y="923"/>
      <point x="667" y="792"/>
      <point x="667" y="699" type="curve" smooth="yes"/>
      <point x="667" y="583.401"/>
      <point x="1033" y="526.949"/>
      <point x="1033" y="260" type="curve" smooth="yes"/>
      <point x="1033" y="95"/>
      <point x="928" y="-18"/>
      <point x="748" y="-18" type="curve" smooth="yes"/>
      <point x="617" y="-18"/>
      <point x="493" y="22"/>
      <point x="436" y="56" type="curve"/>
      <point x="471" y="146" type="line"/>
      <point x="529" y="115"/>
      <point x="627" y="76"/>
      <point x="744" y="76" type="curve" smooth="yes"/>
      <point x="882" y="76"/>
      <point x="925" y="173"/>
      <point x="925" y="251" type="curve" smooth="yes"/>
      <point x="925" y="460.546"/>
      <point x="567" y="507.291"/>
      <point x="567" y="691" type="curve" smooth="yes"/>
      <point x="567" y="843"/>
      <point x="762" y="903"/>
      <point x="763" y="1107" type="curve" smooth="yes"/>
      <point x="763.539" y="1217"/>
      <point x="701" y="1301"/>
      <point x="559" y="1301" type="curve" smooth="yes"/>
      <point x="373" y="1301"/>
      <point x="294" y="1214"/>
      <point x="294" y="961" type="curve" smooth="yes"/>
    </contour>
  </outline>
</glyph>
<glyph name="eth" format="1">
  <advance width="1231"/>
  <unicode hex="00F0"/>
  <outline>
    <contour>
      <point x="603" y="-27" type="curve" smooth="yes"/>
      <point x="923" y="-27"/>
      <point x="1060" y="195"/>
      <point x="1060" y="455" type="curve" smooth="yes"/>
      <point x="1060" y="578"/>
      <point x="1031" y="713"/>
      <point x="987" y="804" type="curve" smooth="yes"/>
      <point x="929" y="923"/>
      <point x="837" y="1049"/>
      <point x="623" y="1271" type="curve"/>
      <point x="883" y="1365" type="line"/>
      <point x="844" y="1436" type="line"/>
      <point x="563" y="1330" type="line"/>
      <point x="398" y="1490" type="line"/>
      <point x="272" y="1490" type="line"/>
      <point x="482" y="1300" type="line"/>
      <point x="250" y="1212" type="line"/>
      <point x="288" y="1140" type="line"/>
      <point x="535" y="1234" type="line"/>
      <point x="765" y="1014"/>
      <point x="857" y="879"/>
      <point x="912" y="768" type="curve"/>
      <point x="846" y="824"/>
      <point x="781" y="900"/>
      <point x="600" y="900" type="curve" smooth="yes"/>
      <point x="339" y="900"/>
      <point x="148" y="718"/>
      <point x="148" y="448" type="curve" smooth="yes"/>
      <point x="148" y="210"/>
      <point x="292" y="-27"/>
    </contour>
    <contour>
      <point x="608" y="55" type="curve" smooth="yes"/>
      <point x="369" y="55"/>
      <point x="262" y="255"/>
      <point x="262" y="446" type="curve" smooth="yes"/>
      <point x="262" y="652"/>
      <point x="388" y="814"/>
      <point x="602" y="814" type="curve" smooth="yes"/>
      <point x="832" y="814"/>
      <point x="956" y="634"/>
      <point x="956" y="460" type="curve" smooth="yes"/>
      <point x="956" y="217"/>
      <point x="841" y="55"/>
    </contour>
  </outline>
</glyph>
<glyph name="divide" format="1">
  <advance width="996"/>
  <unicode hex="00F7"/>
  <outline>
    <contour>
      <point x="416" y="35" type="line"/>
      <point x="561" y="35" type="line"/>
      <point x="561" y="193" type="line"/>
      <point x="416" y="193" type="line"/>
    </contour>
    <contour>
      <point x="61" y="474" type="line"/>
      <point x="914" y="474" type="line"/>
      <point x="914" y="577" type="line"/>
      <point x="61" y="577" type="line"/>
    </contour>
    <contour>
      <point x="416" y="828" type="line"/>
      <point x="561" y="828" type="line"/>
      <point x="561" y="986" type="line"/>
      <point x="416" y="986" type="line"/>
    </contour>
  </outline>
</glyph>
<glyph name="Hbar" format="1">
  <advance width="1569"/>
  <unicode hex="0126"/>
  <outline>
    <contour>
      <point x="261" y="0" type="line"/>
      <point x="261" y="1027" type="line"/>
      <point x="173" y="1027" type="line"/>
      <point x="173" y="1094" type="line"/>
      <point x="261" y="1094" type="line"/>
      <point x="261" y="1378" type="line"/>
      <point x="349" y="1378" type="line"/>
      <point x="349" y="1094" type="line"/>
      <point x="1204" y="1094" type="line"/>
      <point x="1204" y="1378" type="line"/>
      <point x="1292" y="1378" type="line"/>
      <point x="1292" y="1094" type="line"/>
      <point x="1379" y="1094" type="line"/>
      <point x="1379" y="1027" type="line"/>
      <point x="1292" y="1027" type="line"/>
      <point x="1292" y="0" type="line"/>
      <point x="1204" y="0" type="line"/>
      <point x="1204" y="658" type="line"/>
      <point x="349" y="658" type="line"/>
      <point x="349" y="0" type="line"/>
    </contour>
    <contour>
      <point x="349" y="761" type="line"/>
      <point x="1204" y="761" type="line"/>
      <point x="1204" y="1027" type="line"/>
      <point x="349" y="1027" type="line"/>
    </contour>
  </outline>
</glyph>
<glyph name="Lslash" format="1">
  <advance width="1042"/>
  <unicode hex="0141"/>
  <outline>
    <contour>
      <point x="44" y="506" type="line"/>
      <point x="44" y="598" type="line"/>
      <point x="612.5" y="888" type="line"/>
      <point x="612.5" y="796" type="line"/>
    </contour>
    <component base="L"/>
  </outline>
</glyph>
<glyph name="Eng" format="1">
  <advance width="1327"/>
  <unicode hex="014A"/>
  <outline>
    <contour>
      <point x="792" y="-293" type="curve" smooth="yes"/>
      <point x="753" y="-293"/>
      <point x="703" y="-292"/>
      <point x="534" y="-276" type="curve"/>
      <point x="513" y="-201" type="line"/>
      <point x="700" y="-211"/>
      <point x="688" y="-212"/>
      <point x="717" y="-212" type="curve" smooth="yes"/>
      <point x="1039" y="-212"/>
      <point x="1056" y="-135"/>
      <point x="1056" y="167" type="curve" smooth="yes"/>
      <point x="1056" y="945" type="line" smooth="yes"/>
      <point x="1056" y="1206"/>
      <point x="983" y="1289"/>
      <point x="748" y="1289" type="curve" smooth="yes"/>
      <point x="481" y="1289"/>
      <point x="325" y="1135"/>
      <point x="233" y="1009" type="curve"/>
      <point x="233" y="0" type="line"/>
      <point x="170" y="0" type="line"/>
      <point x="166" y="1374" type="line"/>
      <point x="229" y="1374" type="line"/>
      <point x="241" y="1150" type="line"/>
      <point x="460" y="1378"/>
      <point x="617" y="1396"/>
      <point x="787" y="1396" type="curve" smooth="yes"/>
      <point x="1003" y="1396"/>
      <point x="1118" y="1248"/>
      <point x="1118" y="947" type="curve" smooth="yes"/>
      <point x="1118" y="155" type="line" smooth="yes"/>
      <point x="1118" y="-118"/>
      <point x="1110" y="-293"/>
    </contour>
  </outline>
</glyph>
<glyph name="circumflex" format="1">
  <advance width="764"/>
  <unicode hex="02C6"/>
  <outline>
    <contour>
      <point x="148" y="1199" type="line"/>
      <point x="221" y="1199" type="line"/>
      <point x="372" y="1483" type="line"/>
      <point x="510" y="1199" type="line"/>
      <point x="582" y="1199" type="line"/>
      <point x="457" y="1542" type="line"/>
      <point x="290" y="1542" type="line"/>
    </contour>
  </outline>
</glyph>
<glyph name="caron" format="1">
  <advance width="764"/>
  <unicode hex="02C7"/>
  <outline>
    <contour>
      <point x="273" y="1199" type="line"/>
      <point x="440" y="1199" type="line"/>
      <point x="582" y="1542" type="line"/>
      <point x="509" y="1542" type="line"/>
      <point x="358" y="1258" type="line"/>
      <point x="220" y="1542" type="line"/>
      <point x="148" y="1542" type="line"/>
    </contour>
  </outline>
</glyph>
<glyph name="breve" format="1">
  <advance width="734"/>
  <unicode hex="02D8"/>
  <outline>
    <contour>
      <point x="363" y="1235" type="curve" smooth="yes"/>
      <point x="466" y="1235"/>
      <point x="563" y="1292"/>
      <point x="563" y="1443" type="curve"/>
      <point x="498" y="1443" type="line"/>
      <point x="498" y="1339"/>
      <point x="423" y="1299"/>
      <point x="363" y="1299" type="curve" smooth="yes"/>
      <point x="303" y="1299"/>
      <point x="234" y="1339"/>
      <point x="234" y="1443" type="curve"/>
      <point x="167" y="1443" type="line"/>
      <point x="167" y="1291"/>
      <point x="261" y="1235"/>
    </contour>
  </outline>
</glyph>
<glyph name="dotaccent" format="1">
  <advance width="299"/>
  <unicode hex="02D9"/>
  <outline>
    <contour>
      <point x="93" y="1215" type="line"/>
      <point x="212" y="1215" type="line"/>
      <point x="212" y="1354" type="line"/>
      <point x="93" y="1354" type="line"/>
    </contour>
  </outline>
</glyph>
<glyph name="ring" format="1">
  <advance width="572"/>
  <unicode hex="02DA"/>
  <outline>
    <contour>
      <point x="286" y="1261" type="curve" smooth="yes"/>
      <point x="235" y="1261"/>
      <point x="193" y="1303"/>
      <point x="193" y="1354" type="curve" smooth="yes"/>
      <point x="193" y="1405"/>
      <point x="235" y="1447"/>
      <point x="286" y="1447" type="curve" smooth="yes"/>
      <point x="337" y="1447"/>
      <point x="379" y="1405"/>
      <point x="379" y="1354" type="curve" smooth="yes"/>
      <point x="379" y="1303"/>
      <point x="337" y="1261"/>
    </contour>
    <contour>
      <point x="286" y="1202" type="curve" smooth="yes"/>
      <point x="374" y="1202"/>
      <point x="445" y="1267"/>
      <point x="445" y="1355" type="curve" smooth="yes"/>
      <point x="445" y="1443"/>
      <point x="374" y="1508"/>
      <point x="286" y="1508" type="curve" smooth="yes"/>
      <point x="198" y="1508"/>
      <point x="127" y="1443"/>
      <point x="127" y="1355" type="curve" smooth="yes"/>
      <point x="127" y="1267"/>
      <point x="198" y="1202"/>
    </contour>
  </outline>
</glyph>
<glyph name="ogonek" format="1">
  <advance width="560"/>
  <unicode hex="02DB"/>
  <outline>
    <contour>
      <point x="325" y="-382"/>
      <point x="383" y="-369"/>
      <point x="403" y="-358" type="curve"/>
      <point x="403" y="-358"/>
      <point x="402" y="-282"/>
      <point x="403" y="-282" type="curve"/>
      <point x="382" y="-291"/>
      <point x="346" y="-301"/>
      <point x="311" y="-301" type="curve" smooth="yes"/>
      <point x="267" y="-301"/>
      <point x="227" y="-284"/>
      <point x="227" y="-224" type="curve" smooth="yes"/>
      <point x="227" y="-146"/>
      <point x="330" y="-33"/>
      <point x="378" y="0" type="curve"/>
      <point x="316" y="0" type="line"/>
      <point x="208" y="-37"/>
      <point x="114" y="-161"/>
      <point x="114" y="-258" type="curve" smooth="yes"/>
      <point x="114" y="-327"/>
      <point x="161" y="-382"/>
      <point x="284" y="-382" type="curve" smooth="yes"/>
    </contour>
  </outline>
</glyph>
<glyph name="tilde" format="1">
  <advance width="892"/>
  <unicode hex="02DC"/>
  <outline>
    <contour>
      <point x="217" y="1216" type="line"/>
      <point x="220.884" y="1280.48"/>
      <point x="243.648" y="1308.38"/>
      <point x="277.372" y="1308.38" type="curve" smooth="yes"/>
      <point x="348.728" y="1308.38"/>
      <point x="469.156" y="1216"/>
      <point x="563.641" y="1216" type="curve" smooth="yes"/>
      <point x="614.666" y="1216"/>
      <point x="677" y="1240.72"/>
      <point x="677" y="1381" type="curve"/>
      <point x="614" y="1381" type="line"/>
      <point x="609.065" y="1318.83"/>
      <point x="588.609" y="1298.05"/>
      <point x="557.794" y="1298.05" type="curve" smooth="yes"/>
      <point x="495.721" y="1298.05"/>
      <point x="391.609" y="1382.35"/>
      <point x="287.648" y="1382.35" type="curve" smooth="yes"/>
      <point x="224.2" y="1382.35"/>
      <point x="158" y="1353.57"/>
      <point x="158" y="1216" type="curve"/>
    </contour>
  </outline>
</glyph>
<glyph name="hungarumlaut" format="1">
  <advance width="650"/>
  <unicode hex="02DD"/>
  <outline>
    <contour>
      <point x="101" y="1212" type="line"/>
      <point x="153" y="1212" type="line"/>
      <point x="317" y="1494" type="line"/>
      <point x="203" y="1494" type="line"/>
    </contour>
    <contour>
      <point x="300" y="1212" type="line"/>
      <point x="355" y="1212" type="line"/>
      <point x="566" y="1494" type="line"/>
      <point x="442" y="1494" type="line"/>
    </contour>
  </outline>
</glyph>
<glyph name="uni030F" format="1">
  <advance width="650"/>
  <unicode hex="030F"/>
  <outline>
    <contour>
      <point x="544" y="1212" type="line"/>
      <point x="492" y="1212" type="line"/>
      <point x="328" y="1494" type="line"/>
      <point x="442" y="1494" type="line"/>
    </contour>
    <contour>
      <point x="367" y="1212" type="line"/>
      <point x="312" y="1212" type="line"/>
      <point x="101" y="1494" type="line"/>
      <point x="225" y="1494" type="line"/>
    </contour>
  </outline>
</glyph>
<glyph name="uni0311" format="1">
  <advance width="665"/>
  <unicode hex="0311"/>
  <outline>
    <contour>
      <point x="130" y="1222" type="curve"/>
      <point x="193" y="1222" type="line"/>
      <point x="193" y="1328"/>
      <point x="247" y="1378"/>
      <point x="325" y="1378" type="curve" smooth="yes"/>
      <point x="401" y="1378"/>
      <point x="459" y="1327"/>
      <point x="459" y="1222" type="curve"/>
      <point x="524" y="1222" type="line"/>
      <point x="524" y="1382"/>
      <point x="420" y="1445"/>
      <point x="322" y="1445" type="curve" smooth="yes"/>
      <point x="226" y="1445"/>
      <point x="130" y="1383"/>
    </contour>
  </outline>
</glyph>
<glyph name="uni031B" format="1">
  <advance width="437"/>
  <unicode hex="031B"/>
  <outline>
    <contour>
      <point x="213" y="456" type="line"/>
      <point x="217" y="446"/>
      <point x="221" y="422"/>
      <point x="221" y="394" type="curve" smooth="yes"/>
      <point x="221" y="321"/>
      <point x="195" y="215"/>
      <point x="82" y="215" type="curve" smooth="yes"/>
      <point x="74" y="215"/>
      <point x="65" y="216"/>
      <point x="56" y="217" type="curve"/>
      <point x="56" y="151" type="line"/>
      <point x="77" y="148"/>
      <point x="97" y="146"/>
      <point x="115" y="146" type="curve" smooth="yes"/>
      <point x="270" y="146"/>
      <point x="305" y="262"/>
      <point x="305" y="354" type="curve" smooth="yes"/>
      <point x="305" y="400"/>
      <point x="296" y="441"/>
      <point x="289" y="456" type="curve"/>
    </contour>
  </outline>
</glyph>
<glyph name="uni0326" format="1">
  <advance width="278"/>
  <unicode hex="0326"/>
  <outline>
    <contour>
      <point x="48" y="-621" type="line"/>
      <point x="123" y="-183" type="line"/>
      <point x="220" y="-183" type="line"/>
      <point x="109" y="-621" type="line"/>
    </contour>
  </outline>
</glyph>
<glyph name="Gamma" format="1">
  <advance width="1130"/>
  <unicode hex="0393"/>
  <outline>
    <contour>
      <point x="214" y="0" type="line"/>
      <point x="214" y="1354" type="line"/>
      <point x="1010" y="1353.4" type="line"/>
      <point x="1006" y="1265.4" type="line"/>
      <point x="289" y="1266" type="line"/>
      <point x="328" y="1302" type="line"/>
      <point x="328" y="0" type="line"/>
    </contour>
  </outline>
</glyph>
<glyph name="Delta" format="1">
  <advance width="1525"/>
  <unicode hex="0394"/>
  <outline>
    <contour>
      <point x="170" y="0" type="line"/>
      <point x="692" y="1352" type="line"/>
      <point x="821" y="1352" type="line"/>
      <point x="1344" y="0" type="line"/>
    </contour>
    <contour>
      <point x="342" y="111" type="line"/>
      <point x="1174" y="111" type="line"/>
      <point x="755" y="1226" type="line"/>
    </contour>
  </outline>
</glyph>
<glyph name="Lambda" format="1">
  <advance width="1525"/>
  <unicode hex="039B"/>
  <outline>
    <contour>
      <point x="171" y="0" type="line"/>
      <point x="676" y="1355" type="line"/>
      <point x="838" y="1355" type="line"/>
      <point x="1344" y="0" type="line"/>
      <point x="1192" y="0" type="line"/>
      <point x="756" y="1210" type="line"/>
      <point x="328" y="0" type="line"/>
    </contour>
  </outline>
</glyph>
<glyph name="Pi" format="1">
  <advance width="1374"/>
  <unicode hex="03A0"/>
  <outline>
    <contour>
      <point x="144" y="0" type="line"/>
      <point x="144" y="1355" type="line"/>
      <point x="1220" y="1355" type="line"/>
      <point x="1220" y="0" type="line"/>
      <point x="1071" y="0" type="line"/>
      <point x="1071" y="1228" type="line"/>
      <point x="295" y="1228" type="line"/>
      <point x="295" y="0" type="line"/>
    </contour>
  </outline>
</glyph>
<glyph name="Sigma" format="1">
  <advance width="1123"/>
  <unicode hex="03A3"/>
  <outline>
    <contour>
      <point x="142" y="0" type="line"/>
      <point x="142" y="1349" type="line"/>
      <point x="947" y="1349" type="line"/>
      <point x="943" y="1263" type="line"/>
      <point x="232" y="1263" type="line"/>
      <point x="232" y="740" type="line"/>
      <point x="874" y="740" type="line"/>
      <point x="874" y="651" type="line"/>
      <point x="232" y="651" type="line"/>
      <point x="232" y="86" type="line"/>
      <point x="940" y="86" type="line"/>
      <point x="933" y="0" type="line"/>
    </contour>
  </outline>
</glyph>
<glyph name="chi" format="1">
  <advance width="1246"/>
  <unicode hex="03C7"/>
  <outline>
    <contour>
      <point x="168" y="0" type="line"/>
      <point x="275" y="0" type="line"/>
      <point x="598" y="423" type="line"/>
      <point x="925" y="0" type="line"/>
      <point x="1033" y="0" type="line"/>
      <point x="648" y="496" type="line"/>
      <point x="1026" y="985" type="line"/>
      <point x="903" y="985" type="line"/>
      <point x="596" y="580" type="line"/>
      <point x="286" y="985" type="line"/>
      <point x="180" y="985" type="line"/>
      <point x="544" y="500" type="line"/>
    </contour>
  </outline>
</glyph>
<glyph name="uni040A" format="1">
  <advance width="2028"/>
  <unicode hex="040A"/>
  <outline>
    <contour>
      <point x="1015" y="0" type="line"/>
      <point x="1422" y="0" type="line" smooth="yes"/>
      <point x="1792" y="0"/>
      <point x="1872" y="170"/>
      <point x="1872" y="378" type="curve" smooth="yes"/>
      <point x="1872" y="577"/>
      <point x="1784" y="742"/>
      <point x="1416" y="742" type="curve" smooth="yes"/>
      <point x="1091" y="742" type="line"/>
      <point x="1127" y="715" type="line"/>
      <point x="1129" y="1354" type="line"/>
      <point x="1015" y="1354" type="line"/>
      <point x="1015" y="709" type="line"/>
      <point x="1069" y="742" type="line"/>
      <point x="273" y="742" type="line"/>
      <point x="324" y="709" type="line"/>
      <point x="324" y="1354" type="line"/>
      <point x="210" y="1354" type="line"/>
      <point x="210" y="0" type="line"/>
      <point x="324" y="0" type="line"/>
      <point x="324" y="694" type="line"/>
      <point x="273" y="661" type="line"/>
      <point x="1071" y="661" type="line"/>
      <point x="1015" y="694" type="line"/>
    </contour>
    <contour>
      <point x="1127" y="29" type="line"/>
      <point x="1127" y="699" type="line"/>
      <point x="1090" y="661" type="line"/>
      <point x="1415" y="661" type="line" smooth="yes"/>
      <point x="1677" y="661"/>
      <point x="1765" y="588"/>
      <point x="1765" y="376" type="curve" smooth="yes"/>
      <point x="1765" y="168"/>
      <point x="1672" y="80"/>
      <point x="1428" y="80" type="curve" smooth="yes"/>
      <point x="1080" y="80" type="line"/>
    </contour>
  </outline>
</glyph>
<glyph name="uni0414" format="1">
  <advance width="1368"/>
  <unicode hex="0414"/>
  <outline>
    <contour>
      <point x="25" y="-275" type="line"/>
      <point x="25" y="82" type="line"/>
      <point x="175" y="82" type="line"/>
      <point x="261" y="143"/>
      <point x="300.059" y="351.757"/>
      <point x="352" y="1019" type="curve" smooth="yes"/>
      <point x="378" y="1353" type="line"/>
      <point x="1152" y="1353" type="line"/>
      <point x="1152" y="82" type="line"/>
      <point x="1277" y="82" type="line"/>
      <point x="1277" y="-275" type="line"/>
      <point x="1175" y="-275" type="line"/>
      <point x="1175" y="0" type="line"/>
      <point x="129" y="0" type="line"/>
      <point x="129" y="-275" type="line"/>
    </contour>
    <contour>
      <point x="277" y="31" type="curve"/>
      <point x="244" y="82" type="line"/>
      <point x="1076" y="82" type="line"/>
      <point x="1039" y="82" type="line"/>
      <point x="1038" y="1326" type="line"/>
      <point x="1095" y="1272" type="line"/>
      <point x="426" y="1271" type="line"/>
      <point x="486" y="1312" type="line"/>
      <point x="459" y="1008" type="line" smooth="yes"/>
      <point x="421.479" y="540.24"/>
      <point x="395" y="148"/>
    </contour>
  </outline>
</glyph>
<glyph name="uni0416" format="1">
  <advance width="1880"/>
  <unicode hex="0416"/>
  <outline>
    <contour>
      <point x="1195.16" y="769.373" type="line"/>
      <point x="1756" y="0" type="line"/>
      <point x="1619" y="0" type="line"/>
      <point x="1125.75" y="702.745" type="line"/>
      <point x="997" y="574" type="line"/>
      <point x="997" y="0" type="line"/>
      <point x="883" y="0" type="line"/>
      <point x="883" y="574" type="line"/>
      <point x="754.255" y="702.745" type="line"/>
      <point x="261" y="0" type="line"/>
      <point x="124" y="0" type="line"/>
      <point x="684.843" y="769.373" type="line"/>
      <point x="132" y="1354" type="line"/>
      <point x="267" y="1354" type="line"/>
      <point x="883" y="694.739" type="line"/>
      <point x="883" y="1354" type="line"/>
      <point x="997" y="1354" type="line"/>
      <point x="997" y="694.739" type="line"/>
      <point x="1613" y="1354" type="line"/>
      <point x="1748" y="1354" type="line"/>
    </contour>
  </outline>
</glyph>
<glyph name="uni041F" format="1">
  <advance width="1424"/>
  <unicode hex="041F"/>
  <outline>
    <contour>
      <point x="210" y="0" type="line"/>
      <point x="324" y="0" type="line"/>
      <point x="324" y="1305.6" type="line"/>
      <point x="273" y="1272.6" type="line"/>
      <point x="1156" y="1272.6" type="line"/>
      <point x="1100" y="1305.6" type="line"/>
      <point x="1100" y="0" type="line"/>
      <point x="1214" y="0" type="line"/>
      <point x="1214" y="1354" type="line"/>
      <point x="210" y="1354" type="line"/>
    </contour>
  </outline>
</glyph>
<glyph name="uni0423" format="1">
  <advance width="1248"/>
  <unicode hex="0423"/>
  <outline>
    <contour>
      <point x="390" y="0" type="line"/>
      <point x="635.5" y="500.4" type="line"/>
      <point x="651" y="424" type="line"/>
      <point x="148" y="1346" type="line"/>
      <point x="255" y="1346" type="line"/>
      <point x="700" y="516" type="line"/>
      <point x="659.5" y="544.4" type="line"/>
      <point x="1029" y="1346" type="line"/>
      <point x="1137" y="1346" type="line"/>
      <point x="497" y="0" type="line"/>
    </contour>
  </outline>
</glyph>
<glyph name="uni0426" format="1">
  <advance width="1408"/>
  <unicode hex="0426"/>
  <outline>
    <contour>
      <point x="1214" y="1354" type="line"/>
      <point x="1100" y="1354" type="line"/>
      <point x="1100" y="48" type="line"/>
      <point x="1151" y="81" type="line"/>
      <point x="268" y="81" type="line"/>
      <point x="324" y="48" type="line"/>
      <point x="324" y="1354" type="line"/>
      <point x="210" y="1354" type="line"/>
      <point x="210" y="0" type="line"/>
      <point x="1214" y="0" type="line"/>
    </contour>
    <contour>
      <point x="1170" y="-257" type="line"/>
      <point x="1278" y="-257" type="line"/>
      <point x="1278" y="130" type="line"/>
      <point x="1170" y="130" type="line"/>
    </contour>
  </outline>
</glyph>
<glyph name="uni0427" format="1">
  <advance width="793"/>
  <unicode hex="0427"/>
  <outline>
    <contour>
      <point x="768" y="-11" type="line"/>
      <point x="896" y="-11" type="line"/>
      <point x="896" y="1359" type="line"/>
      <point x="768" y="1359" type="line"/>
      <point x="768" y="523" type="line"/>
      <point x="794" y="532"/>
      <point x="407" y="547"/>
      <point x="427" y="547" type="curve"/>
      <point x="290" y="547"/>
      <point x="216" y="586"/>
      <point x="216" y="831" type="curve" smooth="yes"/>
      <point x="216" y="1359" type="line"/>
      <point x="77" y="1359" type="line"/>
      <point x="77" y="791" type="line" smooth="yes"/>
      <point x="77" y="613"/>
      <point x="141" y="431"/>
      <point x="349" y="431" type="curve"/>
      <point x="328" y="431"/>
      <point x="807" y="424"/>
      <point x="768" y="411" type="curve"/>
    </contour>
  </outline>
</glyph>
<glyph name="uni0428" format="1">
  <advance width="1456"/>
  <unicode hex="0428"/>
  <outline>
    <contour>
      <point x="156" y="0" type="line"/>
      <point x="1285" y="0" type="line"/>
      <point x="1285" y="1353" type="line"/>
      <point x="1196" y="1353" type="line"/>
      <point x="1196" y="106" type="line"/>
      <point x="752" y="106" type="line"/>
      <point x="752" y="1353" type="line"/>
      <point x="663" y="1353" type="line"/>
      <point x="663" y="106" type="line"/>
      <point x="245" y="106" type="line"/>
      <point x="245" y="1353" type="line"/>
      <point x="156" y="1353" type="line"/>
    </contour>
  </outline>
</glyph>
<glyph name="uni0429" format="1">
  <advance width="1532"/>
  <unicode hex="0429"/>
  <outline>
    <contour>
      <point x="1301" y="-257" type="line"/>
      <point x="1407" y="-257" type="line"/>
      <point x="1407" y="160" type="line"/>
      <point x="1327" y="160" type="line"/>
      <point x="1327" y="1353" type="line"/>
      <point x="1237" y="1353" type="line"/>
      <point x="1237" y="106" type="line"/>
      <point x="794" y="106" type="line"/>
      <point x="794" y="1353" type="line"/>
      <point x="705" y="1353" type="line"/>
      <point x="705" y="106" type="line"/>
      <point x="287" y="106" type="line"/>
      <point x="287" y="1353" type="line"/>
      <point x="198" y="1353" type="line"/>
      <point x="198" y="0" type="line"/>
      <point x="1302" y="0" type="line"/>
    </contour>
  </outline>
</glyph>
<glyph name="uni042A" format="1">
  <advance width="1198"/>
  <unicode hex="042A"/>
  <outline>
    <contour>
      <point x="238" y="0" type="line"/>
      <point x="657" y="0" type="line" smooth="yes"/>
      <point x="1027" y="0"/>
      <point x="1097" y="181"/>
      <point x="1097" y="389" type="curve" smooth="yes"/>
      <point x="1097" y="588"/>
      <point x="1019" y="766"/>
      <point x="651" y="766" type="curve" smooth="yes"/>
      <point x="310" y="766" type="line"/>
      <point x="352" y="726" type="line"/>
      <point x="352" y="1354" type="line"/>
      <point x="0" y="1354" type="line"/>
      <point x="0" y="1265" type="line"/>
      <point x="289" y="1267" type="line"/>
      <point x="238" y="1315" type="line"/>
    </contour>
    <contour>
      <point x="352" y="38" type="line"/>
      <point x="352" y="708" type="line"/>
      <point x="308" y="678" type="line"/>
      <point x="650" y="678" type="line" smooth="yes"/>
      <point x="904" y="678"/>
      <point x="983" y="597"/>
      <point x="983" y="385" type="curve" smooth="yes"/>
      <point x="983" y="177"/>
      <point x="897" y="88"/>
      <point x="663" y="88" type="curve" smooth="yes"/>
      <point x="308" y="88" type="line"/>
    </contour>
  </outline>
</glyph>
<glyph name="uni042E" format="1">
  <advance width="1983"/>
  <unicode hex="042E"/>
  <outline>
    <contour>
      <point x="1218" y="72" type="curve" smooth="yes"/>
      <point x="1589" y="72"/>
      <point x="1729" y="319"/>
      <point x="1729" y="666" type="curve" smooth="yes"/>
      <point x="1729" y="1029"/>
      <point x="1579" y="1282"/>
      <point x="1219" y="1282" type="curve" smooth="yes"/>
      <point x="860" y="1282"/>
      <point x="701" y="1031"/>
      <point x="701" y="666" type="curve" smooth="yes"/>
      <point x="701" y="319"/>
      <point x="847" y="72"/>
    </contour>
    <contour>
      <point x="1219" y="-18" type="curve" smooth="yes"/>
      <point x="793" y="-18"/>
      <point x="579" y="256"/>
      <point x="587" y="688" type="curve"/>
      <point x="639" y="648" type="line"/>
      <point x="265" y="648" type="line"/>
      <point x="324" y="688" type="line"/>
      <point x="324" y="0" type="line"/>
      <point x="210" y="0" type="line"/>
      <point x="210" y="1379" type="line"/>
      <point x="324" y="1379" type="line"/>
      <point x="324" y="705" type="line"/>
      <point x="265" y="743" type="line"/>
      <point x="641" y="743" type="line"/>
      <point x="589" y="703" type="line"/>
      <point x="602" y="1120"/>
      <point x="825" y="1372"/>
      <point x="1220" y="1372" type="curve" smooth="yes"/>
      <point x="1628" y="1372"/>
      <point x="1843" y="1083"/>
      <point x="1843" y="664" type="curve" smooth="yes"/>
      <point x="1843" y="268"/>
      <point x="1643" y="-18"/>
    </contour>
  </outline>
</glyph>
<glyph name="uni0434" format="1">
  <advance width="1160"/>
  <unicode hex="0434"/>
  <outline>
    <contour>
      <point x="57" y="-257" type="line"/>
      <point x="57" y="71" type="line"/>
      <point x="153" y="71" type="line"/>
      <point x="230" y="93"/>
      <point x="249" y="164"/>
      <point x="284" y="260" type="curve"/>
      <point x="415" y="988" type="line"/>
      <point x="981" y="988" type="line"/>
      <point x="981" y="71" type="line"/>
      <point x="1038" y="71" type="line"/>
      <point x="1038" y="-257" type="line"/>
      <point x="941" y="-257" type="line"/>
      <point x="952" y="0" type="line"/>
      <point x="138" y="0" type="line"/>
      <point x="144" y="-257" type="line"/>
    </contour>
    <contour>
      <point x="278" y="69" type="curve"/>
      <point x="858" y="69" type="line"/>
      <point x="858" y="923" type="line"/>
      <point x="500" y="923" type="line"/>
      <point x="501" y="948"/>
      <point x="406" y="348"/>
      <point x="408" y="367" type="curve"/>
      <point x="373" y="204"/>
      <point x="317" y="75"/>
    </contour>
  </outline>
</glyph>
<glyph name="uni0436" format="1">
  <advance width="1438"/>
  <unicode hex="0436"/>
  <outline>
    <contour>
      <point x="57" y="0" type="line"/>
      <point x="564" y="510" type="line"/>
      <point x="60" y="988" type="line"/>
      <point x="159" y="988" type="line"/>
      <point x="646" y="515" type="line"/>
      <point x="646" y="988" type="line"/>
      <point x="767" y="988" type="line"/>
      <point x="767" y="515" type="line"/>
      <point x="1258" y="988" type="line"/>
      <point x="1355" y="988" type="line"/>
      <point x="852" y="510" type="line"/>
      <point x="1358" y="0" type="line"/>
      <point x="1248" y="0" type="line"/>
      <point x="767" y="490" type="line"/>
      <point x="767" y="0" type="line"/>
      <point x="646" y="0" type="line"/>
      <point x="646" y="490" type="line"/>
      <point x="168" y="0" type="line"/>
    </contour>
  </outline>
</glyph>
<glyph name="uni0438" format="1">
  <advance width="1088"/>
  <unicode hex="0438"/>
  <outline>
    <contour>
      <point x="161" y="0" type="line"/>
      <point x="161" y="986" type="line"/>
      <point x="254" y="986" type="line"/>
      <point x="254" y="147" type="line"/>
      <point x="818" y="904" type="line"/>
      <point x="818" y="986" type="line"/>
      <point x="913" y="986" type="line"/>
      <point x="913" y="0" type="line"/>
      <point x="818" y="0" type="line"/>
      <point x="818" y="759" type="line"/>
      <point x="253" y="0" type="line"/>
    </contour>
  </outline>
</glyph>
<glyph name="uni043A" format="1">
  <advance width="1122"/>
  <unicode hex="043A"/>
  <outline>
    <contour>
      <point x="194" y="0" type="line"/>
      <point x="194" y="986" type="line"/>
      <point x="315" y="986" type="line"/>
      <point x="315" y="511" type="line"/>
      <point x="751" y="985" type="line"/>
      <point x="904" y="987" type="line"/>
      <point x="444" y="493" type="line"/>
      <point x="957" y="0" type="line"/>
      <point x="820" y="0" type="line"/>
      <point x="315" y="482" type="line"/>
      <point x="315" y="0" type="line"/>
    </contour>
  </outline>
</glyph>
<glyph name="uni043C" format="1">
  <advance width="1271"/>
  <unicode hex="043C"/>
  <outline>
    <contour>
      <point x="180" y="0" type="line"/>
      <point x="180" y="986" type="line"/>
      <point x="282" y="986" type="line"/>
      <point x="638" y="272" type="line"/>
      <point x="992" y="986" type="line"/>
      <point x="1091" y="986" type="line"/>
      <point x="1091" y="0" type="line"/>
      <point x="985" y="0" type="line"/>
      <point x="985" y="765" type="line"/>
      <point x="679" y="151" type="line"/>
      <point x="594" y="151" type="line"/>
      <point x="286" y="765" type="line"/>
      <point x="286" y="0" type="line"/>
    </contour>
  </outline>
</glyph>
<glyph name="uni043D" format="1">
  <advance width="1165"/>
  <unicode hex="043D"/>
  <outline>
    <contour>
      <point x="180" y="0" type="line"/>
      <point x="180" y="986" type="line"/>
      <point x="294" y="986" type="line"/>
      <point x="294" y="568" type="line"/>
      <point x="871" y="568" type="line"/>
      <point x="871" y="986" type="line"/>
      <point x="985" y="986" type="line"/>
      <point x="985" y="0" type="line"/>
      <point x="871" y="0" type="line"/>
      <point x="871" y="479" type="line"/>
      <point x="294" y="479" type="line"/>
      <point x="294" y="0" type="line"/>
    </contour>
  </outline>
</glyph>
<glyph name="uni043F" format="1">
  <advance width="1139"/>
  <unicode hex="043F"/>
  <outline>
    <contour>
      <point x="180" y="0" type="line"/>
      <point x="180" y="986" type="line"/>
      <point x="959" y="986" type="line"/>
      <point x="959" y="0" type="line"/>
      <point x="845" y="0" type="line"/>
      <point x="845" y="900" type="line"/>
      <point x="294" y="900" type="line"/>
      <point x="294" y="0" type="line"/>
    </contour>
  </outline>
</glyph>
<glyph name="uni0442" format="1">
  <advance width="958"/>
  <unicode hex="0442"/>
  <outline>
    <contour>
      <point x="407" y="0" type="line"/>
      <point x="407" y="892" type="line"/>
      <point x="127" y="892" type="line"/>
      <point x="127" y="986" type="line"/>
      <point x="818" y="986" type="line"/>
      <point x="818" y="892" type="line"/>
      <point x="534" y="892" type="line"/>
      <point x="534" y="0" type="line"/>
    </contour>
  </outline>
</glyph>
<glyph name="uni0443" format="1">
  <advance width="1045"/>
  <unicode hex="0443"/>
  <outline>
    <contour>
      <point x="235" y="-284" type="curve"/>
      <point x="235" y="-190" type="line"/>
      <point x="513" y="-190"/>
      <point x="548" y="-172"/>
      <point x="546" y="26" type="curve" smooth="yes"/>
      <point x="544.116" y="200.385" type="line"/>
      <point x="574.5" y="78.3848" type="line" smooth="yes"/>
      <point x="110" y="986" type="line"/>
      <point x="226" y="986" type="line"/>
      <point x="614.5" y="214.385" type="line"/>
      <point x="568.5" y="214.385" type="line"/>
      <point x="884" y="986" type="line"/>
      <point x="996" y="986" type="line"/>
      <point x="628.5" y="86.3848" type="line" smooth="yes"/>
      <point x="648.175" y="206.385" type="line"/>
      <point x="650" y="24" type="line" smooth="yes"/>
      <point x="653" y="-230"/>
      <point x="617" y="-284"/>
    </contour>
  </outline>
</glyph>
<glyph name="uni0446" format="1">
  <advance width="1120"/>
  <unicode hex="0446"/>
  <outline>
    <contour>
      <point x="891" y="-257" type="line"/>
      <point x="905" y="0" type="line"/>
      <point x="194" y="0" type="line"/>
      <point x="194" y="988" type="line"/>
      <point x="313" y="988" type="line"/>
      <point x="313" y="72" type="line"/>
      <point x="832" y="72" type="line"/>
      <point x="832" y="988" type="line"/>
      <point x="952" y="988" type="line"/>
      <point x="952" y="126" type="line"/>
      <point x="1041" y="126" type="line"/>
      <point x="1041" y="-257" type="line"/>
    </contour>
  </outline>
</glyph>
<glyph name="uni0447" format="1">
  <advance width="1002"/>
  <unicode hex="0447"/>
  <outline>
    <contour>
      <point x="672" y="0" type="line"/>
      <point x="792" y="0" type="line"/>
      <point x="792" y="986" type="line"/>
      <point x="672" y="986" type="line"/>
      <point x="672" y="456" type="line"/>
      <point x="502" y="456" type="line" smooth="yes"/>
      <point x="368" y="456"/>
      <point x="280" y="470"/>
      <point x="280" y="742" type="curve" smooth="yes"/>
      <point x="280" y="986" type="line"/>
      <point x="159" y="986" type="line"/>
      <point x="159" y="745" type="line" smooth="yes"/>
      <point x="159" y="393"/>
      <point x="307" y="370"/>
      <point x="504" y="370" type="curve" smooth="yes"/>
      <point x="672" y="370" type="line"/>
    </contour>
  </outline>
</glyph>
<glyph name="uni0449" format="1">
  <advance width="1352"/>
  <unicode hex="0449"/>
  <outline>
    <contour>
      <point x="1124" y="-262" type="line"/>
      <point x="1135" y="0" type="line"/>
      <point x="196" y="0" type="line"/>
      <point x="196" y="988" type="line"/>
      <point x="326" y="988" type="line"/>
      <point x="326" y="72" type="line"/>
      <point x="650" y="72" type="line"/>
      <point x="650" y="988" type="line"/>
      <point x="782" y="988" type="line"/>
      <point x="782" y="72" type="line"/>
      <point x="1050" y="72" type="line"/>
      <point x="1050" y="988" type="line"/>
      <point x="1182" y="988" type="line"/>
      <point x="1182" y="125" type="line"/>
      <point x="1272" y="125" type="line"/>
      <point x="1272" y="-262" type="line"/>
    </contour>
  </outline>
</glyph>
<glyph name="uni044C" format="1">
  <advance width="952"/>
  <unicode hex="044C"/>
  <outline>
    <contour>
      <point x="180" y="0" type="line"/>
      <point x="180" y="986" type="line"/>
      <point x="294" y="986" type="line"/>
      <point x="294" y="624" type="line"/>
      <point x="531" y="624" type="line" smooth="yes"/>
      <point x="814" y="624"/>
      <point x="874" y="455"/>
      <point x="874" y="322" type="curve" smooth="yes"/>
      <point x="874" y="179"/>
      <point x="813" y="0"/>
      <point x="533" y="0" type="curve" smooth="yes"/>
    </contour>
    <contour>
      <point x="293" y="79" type="line"/>
      <point x="536" y="79" type="line" smooth="yes"/>
      <point x="682" y="79"/>
      <point x="765" y="155"/>
      <point x="765" y="324" type="curve" smooth="yes"/>
      <point x="765" y="470"/>
      <point x="680" y="538"/>
      <point x="539" y="538" type="curve" smooth="yes"/>
      <point x="293" y="538" type="line"/>
    </contour>
  </outline>
</glyph>
<glyph name="uni044D" format="1">
  <advance width="1117"/>
  <unicode hex="044D"/>
  <outline>
    <contour>
      <point x="466" y="-26" type="curve" smooth="yes"/>
      <point x="337" y="-26"/>
      <point x="216" y="9"/>
      <point x="167" y="62" type="curve"/>
      <point x="196" y="135" type="line"/>
      <point x="298" y="77"/>
      <point x="384" y="60"/>
      <point x="460" y="60" type="curve" smooth="yes"/>
      <point x="688" y="60"/>
      <point x="836" y="227"/>
      <point x="851" y="443" type="curve"/>
      <point x="439" y="443" type="line"/>
      <point x="439" y="537" type="line"/>
      <point x="851" y="537" type="line"/>
      <point x="835" y="759"/>
      <point x="716" y="932"/>
      <point x="455" y="932" type="curve" smooth="yes"/>
      <point x="347" y="932"/>
      <point x="268" y="897"/>
      <point x="193" y="852" type="curve"/>
      <point x="159" y="923" type="line"/>
      <point x="227" y="985"/>
      <point x="359" y="1016"/>
      <point x="453" y="1016" type="curve" smooth="yes"/>
      <point x="843" y="1016"/>
      <point x="948" y="721"/>
      <point x="948" y="478" type="curve" smooth="yes"/>
      <point x="948" y="259"/>
      <point x="815" y="-26"/>
    </contour>
  </outline>
</glyph>
<glyph name="uni044E" format="1">
  <advance width="1421"/>
  <unicode hex="044E"/>
  <outline>
    <contour>
      <point x="850" y="-26" type="curve" smooth="yes"/>
      <point x="560" y="-26"/>
      <point x="445" y="178"/>
      <point x="440" y="451" type="curve"/>
      <point x="243" y="451" type="line"/>
      <point x="243" y="0" type="line"/>
      <point x="161" y="0" type="line"/>
      <point x="161" y="986" type="line"/>
      <point x="243" y="986" type="line"/>
      <point x="243" y="530" type="line"/>
      <point x="440" y="530" type="line"/>
      <point x="446" y="799"/>
      <point x="563" y="1016"/>
      <point x="855" y="1016" type="curve" smooth="yes"/>
      <point x="1171" y="1016"/>
      <point x="1250" y="779"/>
      <point x="1250" y="493" type="curve" smooth="yes"/>
      <point x="1250" y="220"/>
      <point x="1159" y="-26"/>
    </contour>
    <contour>
      <point x="855" y="60" type="curve" smooth="yes"/>
      <point x="1092" y="60"/>
      <point x="1154" y="273"/>
      <point x="1154" y="491" type="curve" smooth="yes"/>
      <point x="1154" y="715"/>
      <point x="1101" y="930"/>
      <point x="850" y="930" type="curve" smooth="yes"/>
      <point x="609" y="930"/>
      <point x="539" y="703"/>
      <point x="539" y="486" type="curve" smooth="yes"/>
      <point x="539" y="274"/>
      <point x="612" y="60"/>
    </contour>
  </outline>
</glyph>
<glyph name="uni045B" format="1">
  <advance width="1244"/>
  <unicode hex="045B"/>
  <outline>
    <contour>
      <point x="264" y="0" type="line"/>
      <point x="441" y="0" type="line"/>
      <point x="441" y="534" type="line"/>
      <point x="474" y="479"/>
      <point x="517" y="424"/>
      <point x="596" y="424" type="curve" smooth="yes"/>
      <point x="743" y="424"/>
      <point x="769" y="377"/>
      <point x="769" y="163" type="curve" smooth="yes"/>
      <point x="769" y="0" type="line"/>
      <point x="948" y="0" type="line"/>
      <point x="948" y="175" type="line" smooth="yes"/>
      <point x="948" y="418"/>
      <point x="854" y="535"/>
      <point x="624" y="535" type="curve" smooth="yes"/>
      <point x="499" y="535"/>
      <point x="442" y="543"/>
      <point x="441" y="596" type="curve"/>
      <point x="441" y="927" type="line"/>
      <point x="761" y="927" type="line"/>
      <point x="761" y="1020" type="line"/>
      <point x="404" y="1020" type="line"/>
      <point x="404" y="1324" type="line"/>
      <point x="264" y="1324" type="line"/>
      <point x="264" y="1020" type="line"/>
      <point x="102" y="1020" type="line"/>
      <point x="102" y="926" type="line"/>
      <point x="264" y="926" type="line"/>
    </contour>
  </outline>
</glyph>
<glyph name="uni045F" format="1">
  <advance width="1031"/>
  <unicode hex="045F"/>
  <outline>
    <contour>
      <point x="513" y="-219" type="line"/>
      <point x="575" y="-219" type="line"/>
      <point x="575" y="0" type="line"/>
      <point x="861" y="0" type="line"/>
      <point x="861" y="986" type="line"/>
      <point x="778" y="986" type="line"/>
      <point x="778" y="72" type="line"/>
      <point x="243" y="72" type="line"/>
      <point x="243" y="986" type="line"/>
      <point x="161" y="986" type="line"/>
      <point x="161" y="0" type="line"/>
      <point x="511" y="0" type="line"/>
    </contour>
  </outline>
</glyph>
<glyph name="endash" format="1">
  <advance width="1206"/>
  <unicode hex="2013"/>
  <outline>
    <contour>
      <point x="128" y="520" type="line"/>
      <point x="1052" y="520" type="line"/>
      <point x="1052" y="621" type="line"/>
      <point x="128" y="621" type="line"/>
    </contour>
  </outline>
</glyph>
<glyph name="emdash" format="1">
  <advance width="2388"/>
  <unicode hex="2014"/>
  <outline>
    <contour>
      <point x="168" y="520" type="line"/>
      <point x="2203" y="520" type="line"/>
      <point x="2203" y="621" type="line"/>
      <point x="168" y="621" type="line"/>
    </contour>
  </outline>
</glyph>
<glyph name="quoteleft" format="1">
  <advance width="466"/>
  <unicode hex="2018"/>
  <outline>
    <contour>
      <point x="289" y="944" type="line"/>
      <point x="314" y="1354" type="line"/>
      <point x="251" y="1354" type="line"/>
      <point x="187" y="944" type="line"/>
    </contour>
  </outline>
</glyph>
<glyph name="quotedblleft" format="1">
  <advance width="758"/>
  <unicode hex="201C"/>
  <outline>
    <contour>
      <point x="288" y="1073" type="line"/>
      <point x="323" y="1711" type="line"/>
      <point x="208" y="1466" type="line"/>
      <point x="151" y="826" type="line"/>
    </contour>
    <contour>
      <point x="586" y="1073" type="line"/>
      <point x="609" y="1711" type="line"/>
      <point x="503" y="1466" type="line"/>
      <point x="438" y="826" type="line"/>
    </contour>
  </outline>
</glyph>
<glyph name="quotedblright" format="1">
  <advance width="575"/>
  <unicode hex="201D"/>
  <outline>
    <contour>
      <point x="75" y="1066" type="line"/>
      <point x="134" y="1066" type="line"/>
      <point x="246" y="1468" type="line"/>
      <point x="148" y="1468" type="line"/>
    </contour>
    <contour>
      <point x="332" y="1071" type="line"/>
      <point x="397" y="1071" type="line"/>
      <point x="505" y="1468" type="line"/>
      <point x="407" y="1468" type="line"/>
    </contour>
  </outline>
</glyph>
<glyph name="dagger" format="1">
  <advance width="874"/>
  <unicode hex="2020"/>
  <outline>
    <contour>
      <point x="393" y="115" type="line"/>
      <point x="462" y="115" type="line"/>
      <point x="462" y="930" type="line"/>
      <point x="722" y="930" type="line"/>
      <point x="722" y="986" type="line"/>
      <point x="456" y="986" type="line"/>
      <point x="456" y="1354" type="line"/>
      <point x="393" y="1354" type="line"/>
      <point x="393" y="986" type="line"/>
      <point x="128" y="986" type="line"/>
      <point x="128" y="930" type="line"/>
      <point x="393" y="930" type="line"/>
    </contour>
  </outline>
</glyph>
<glyph name="daggerdbl" format="1">
  <advance width="959"/>
  <unicode hex="2021"/>
  <outline>
    <contour>
      <point x="722" y="450" type="line"/>
      <point x="722" y="506" type="line"/>
      <point x="462" y="506" type="line"/>
      <point x="462" y="930" type="line"/>
      <point x="722" y="930" type="line"/>
      <point x="722" y="986" type="line"/>
      <point x="456" y="986" type="line"/>
      <point x="456" y="1354" type="line"/>
      <point x="393" y="1354" type="line"/>
      <point x="393" y="986" type="line"/>
      <point x="128" y="986" type="line"/>
      <point x="128" y="930" type="line"/>
      <point x="393" y="930" type="line"/>
      <point x="393" y="506" type="line"/>
      <point x="128" y="506" type="line"/>
      <point x="128" y="450" type="line"/>
      <point x="393" y="450" type="line"/>
      <point x="393" y="115" type="line"/>
      <point x="462" y="115" type="line"/>
      <point x="462" y="450" type="line"/>
    </contour>
  </outline>
</glyph>
<glyph name="bullet" format="1">
  <advance width="761"/>
  <unicode hex="2022"/>
  <outline>
    <contour>
      <point x="377" y="415" type="curve" smooth="yes"/>
      <point x="236" y="415"/>
      <point x="96" y="512"/>
      <point x="96" y="710" type="curve" smooth="yes"/>
      <point x="96" y="911"/>
      <point x="239" y="1012"/>
      <point x="382" y="1012" type="curve" smooth="yes"/>
      <point x="524" y="1012"/>
      <point x="665" y="913"/>
      <point x="665" y="714" type="curve" smooth="yes"/>
      <point x="665" y="515"/>
      <point x="520" y="415"/>
    </contour>
  </outline>
</glyph>
<glyph name="guilsinglleft" format="1">
  <advance width="597"/>
  <unicode hex="2039"/>
  <outline>
    <contour>
      <point x="493" y="931" type="line"/>
      <point x="402" y="931" type="line"/>
      <point x="109" y="527" type="line"/>
      <point x="398" y="133" type="line"/>
      <point x="489" y="133" type="line"/>
      <point x="207" y="526" type="line"/>
    </contour>
  </outline>
</glyph>
<glyph name="guilsinglright" format="1">
  <advance width="607"/>
  <unicode hex="203A"/>
  <outline>
    <contour>
      <point x="133" y="133" type="line"/>
      <point x="224" y="133" type="line"/>
      <point x="517" y="537" type="line"/>
      <point x="228" y="931" type="line"/>
      <point x="137" y="931" type="line"/>
      <point x="419" y="538" type="line"/>
    </contour>
  </outline>
</glyph>
<glyph name="fraction" format="1">
  <advance width="1108"/>
  <unicode hex="2044"/>
  <outline>
    <contour>
      <point x="159" y="0" type="line"/>
      <point x="257" y="0" type="line"/>
      <point x="949" y="1448" type="line"/>
      <point x="860" y="1448" type="line"/>
    </contour>
  </outline>
</glyph>
<glyph name="uni2074" format="1">
  <advance width="675"/>
  <unicode hex="2074"/>
  <outline>
    <contour>
      <point x="424" y="632" type="line"/>
      <point x="474" y="632" type="line"/>
      <point x="473" y="837" type="line"/>
      <point x="564" y="837" type="line"/>
      <point x="559" y="904" type="line"/>
      <point x="476" y="904" type="line"/>
      <point x="476" y="1425" type="line"/>
      <point x="405" y="1425" type="line"/>
      <point x="132" y="907" type="line"/>
      <point x="132" y="837" type="line"/>
      <point x="424" y="837" type="line"/>
    </contour>
    <contour>
      <point x="171" y="904" type="line"/>
      <point x="426" y="1334" type="line"/>
      <point x="424" y="904" type="line"/>
    </contour>
  </outline>
</glyph>
<glyph name="summation" format="1">
  <advance width="1236"/>
  <unicode hex="2211"/>
  <outline>
    <contour>
      <point x="110" y="-341" type="line"/>
      <point x="1109" y="-341" type="line"/>
      <point x="1109" y="-224" type="line"/>
      <point x="226" y="-224" type="line"/>
      <point x="847" y="563" type="line"/>
      <point x="248" y="1326" type="line"/>
      <point x="1075" y="1326" type="line"/>
      <point x="1075" y="1433" type="line"/>
      <point x="132" y="1433" type="line"/>
      <point x="132" y="1363" type="line"/>
      <point x="694" y="555" type="line"/>
      <point x="110" y="-273" type="line"/>
    </contour>
  </outline>
</glyph>
<glyph name="integral" format="1">
  <advance width="672"/>
  <unicode hex="222B"/>
  <outline>
    <contour>
      <point x="392" y="-262"/>
      <point x="320" y="-384"/>
      <point x="151" y="-384" type="curve" smooth="yes"/>
      <point x="120" y="-384"/>
      <point x="86" y="-380"/>
      <point x="48" y="-372" type="curve"/>
      <point x="48" y="-286" type="line"/>
      <point x="82" y="-294"/>
      <point x="112" y="-298"/>
      <point x="137" y="-298" type="curve" smooth="yes"/>
      <point x="265" y="-298"/>
      <point x="283" y="-196"/>
      <point x="283" y="-46" type="curve" smooth="yes"/>
      <point x="283" y="1042" type="line" smooth="yes"/>
      <point x="283" y="1262"/>
      <point x="341" y="1374"/>
      <point x="501" y="1374" type="curve" smooth="yes"/>
      <point x="533" y="1374"/>
      <point x="569" y="1369"/>
      <point x="610" y="1360" type="curve"/>
      <point x="610" y="1274" type="line"/>
      <point x="576" y="1283"/>
      <point x="548" y="1288"/>
      <point x="523" y="1288" type="curve" smooth="yes"/>
      <point x="414" y="1288"/>
      <point x="392" y="1196"/>
      <point x="392" y="1050" type="curve" smooth="yes"/>
      <point x="392" y="-38" type="line" smooth="yes"/>
    </contour>
  </outline>
</glyph>
<glyph name="approxequal" format="1">
  <advance width="1197"/>
  <unicode hex="2248"/>
  <outline>
    <contour>
      <point x="118" y="322" type="line"/>
      <point x="137" y="511"/>
      <point x="229" y="612"/>
      <point x="376" y="612" type="curve" smooth="yes"/>
      <point x="464" y="612"/>
      <point x="539" y="566"/>
      <point x="611" y="520" type="curve"/>
      <point x="681" y="477"/>
      <point x="749" y="423"/>
      <point x="810" y="423" type="curve" smooth="yes"/>
      <point x="899" y="423"/>
      <point x="946" y="499"/>
      <point x="953" y="612" type="curve"/>
      <point x="1043" y="642" type="line"/>
      <point x="1025" y="458"/>
      <point x="985" y="354"/>
      <point x="815" y="354" type="curve" smooth="yes"/>
      <point x="749" y="354"/>
      <point x="667" y="386"/>
      <point x="555" y="460" type="curve"/>
      <point x="490" y="505"/>
      <point x="430" y="539"/>
      <point x="381" y="539" type="curve" smooth="yes"/>
      <point x="281" y="539"/>
      <point x="229" y="470"/>
      <point x="203" y="354" type="curve"/>
    </contour>
    <contour>
      <point x="114" y="684" type="line"/>
      <point x="132" y="869"/>
      <point x="231" y="971"/>
      <point x="377" y="971" type="curve" smooth="yes"/>
      <point x="457" y="971"/>
      <point x="520" y="935"/>
      <point x="613" y="872" type="curve"/>
      <point x="703" y="813"/>
      <point x="754" y="783"/>
      <point x="807" y="783" type="curve" smooth="yes"/>
      <point x="896" y="783"/>
      <point x="942" y="856"/>
      <point x="949" y="971" type="curve"/>
      <point x="1040" y="1005" type="line"/>
      <point x="1021" y="820"/>
      <point x="977" y="717"/>
      <point x="813" y="717" type="curve" smooth="yes"/>
      <point x="741" y="717"/>
      <point x="661" y="749"/>
      <point x="552" y="825" type="curve" smooth="yes"/>
      <point x="487" y="870"/>
      <point x="426" y="902"/>
      <point x="377" y="902" type="curve" smooth="yes"/>
      <point x="276" y="902"/>
      <point x="225" y="836"/>
      <point x="203" y="721" type="curve"/>
    </contour>
  </outline>
</glyph>
<glyph name="notequal" format="1">
  <advance width="1087"/>
  <unicode hex="2260"/>
  <outline>
    <contour>
      <point x="306" y="48" type="line"/>
      <point x="445" y="341" type="line"/>
      <point x="954" y="341" type="line"/>
      <point x="952" y="423" type="line"/>
      <point x="479" y="423" type="line"/>
      <point x="654" y="754" type="line"/>
      <point x="954" y="754" type="line"/>
      <point x="949" y="834" type="line"/>
      <point x="689" y="834" type="line"/>
      <point x="797" y="1111" type="line"/>
      <point x="738" y="1120" type="line"/>
      <point x="604" y="834" type="line"/>
      <point x="111" y="834" type="line"/>
      <point x="116" y="753" type="line"/>
      <point x="568" y="753" type="line"/>
      <point x="399" y="423" type="line"/>
      <point x="111" y="423" type="line"/>
      <point x="116" y="341" type="line"/>
      <point x="357" y="341" type="line"/>
      <point x="249" y="61" type="line"/>
    </contour>
  </outline>
</glyph>
<glyph name="lessequal" format="1">
  <advance width="1144"/>
  <unicode hex="2264"/>
  <outline>
    <contour>
      <point x="974" y="222" type="line"/>
      <point x="974" y="319" type="line"/>
      <point x="293" y="702" type="line"/>
      <point x="974" y="1106" type="line"/>
      <point x="974" y="1206" type="line"/>
      <point x="160" y="730" type="line"/>
      <point x="160" y="671" type="line"/>
    </contour>
    <contour>
      <point x="115" y="0" type="line"/>
      <point x="1010" y="0" type="line"/>
      <point x="1010" y="91" type="line"/>
      <point x="115" y="91" type="line"/>
    </contour>
  </outline>
</glyph>
<glyph name="greaterequal" format="1">
  <advance width="1141"/>
  <unicode hex="2265"/>
  <outline>
    <contour>
      <point x="157" y="225" type="line"/>
      <point x="982" y="674" type="line"/>
      <point x="982" y="730" type="line"/>
      <point x="162" y="1209" type="line"/>
      <point x="162" y="1111" type="line"/>
      <point x="920" y="702" type="line"/>
      <point x="157" y="321" type="line"/>
    </contour>
    <contour>
      <point x="119" y="10" type="line"/>
      <point x="1007" y="10" type="line"/>
      <point x="1007" y="108" type="line"/>
      <point x="119" y="107" type="line"/>
    </contour>
  </outline>
</glyph>
<glyph name=".notdef" format="1">
  <advance width="861"/>
  <outline>
    <contour>
      <point x="172" y="416" type="line"/>
      <point x="690" y="416" type="line"/>
      <point x="690" y="573" type="line"/>
      <point x="172" y="573" type="line"/>
    </contour>
    <contour>
      <point x="86" y="329" type="line"/>
      <point x="86" y="660" type="line"/>
      <point x="776" y="660" type="line"/>
      <point x="776" y="329" type="line"/>
    </contour>
  </outline>
</glyph>
<glyph name="middot" format="1">
  <advance width="372"/>
  <outline>
    <contour>
      <point x="107" y="511" type="line"/>
      <point x="107" y="691" type="line"/>
      <point x="260" y="691" type="line"/>
      <point x="260" y="511" type="line"/>
    </contour>
  </outline>
</glyph>
